<?xml version="1.0" standalone="no"?>
<!DOCTYPE svg PUBLIC "-//W3C//DTD SVG 20010904//EN"
 "http://www.w3.org/TR/2001/REC-SVG-20010904/DTD/svg10.dtd">
<svg version="1.0" xmlns="http://www.w3.org/2000/svg"
 width="950.000000pt" height="262.000000pt" viewBox="0 0 950.000000 262.000000"
 preserveAspectRatio="xMidYMid meet">
<metadata>
Created by potrace 1.16, written by Peter Selinger 2001-2019
</metadata>
<g transform="translate(0.000000,262.000000) scale(0.100000,-0.100000)"
fill="#000000" stroke="none">
<path d="M3740 2144 c-42 -18 -76 -49 -98 -89 -15 -26 -18 -88 -22 -505 l-5
-475 -27 -51 c-60 -114 -189 -172 -320 -145 -107 23 -182 99 -213 217 -37 142
-5 284 83 370 56 55 104 74 193 74 81 0 129 -12 168 -42 41 -32 51 -24 51 41
0 207 -186 287 -445 190 -46 -17 -75 -38 -127 -90 -75 -76 -108 -133 -138
-241 -62 -223 -12 -478 119 -608 188 -184 517 -200 709 -35 47 41 108 127 135
190 44 104 47 144 47 693 l0 522 -37 0 c-21 -1 -54 -8 -73 -16z"/>
<path d="M5447 1834 c-115 -28 -159 -75 -161 -172 -1 -65 20 -138 42 -147 8
-3 29 10 52 33 64 67 175 80 301 36 85 -30 168 -30 232 1 45 21 48 49 14 100
-88 129 -297 194 -480 149z"/>
<path d="M194 1821 c-2 -2 -4 -236 -4 -520 l0 -516 30 -51 c32 -58 88 -92 154
-97 l37 -2 2 474 2 473 120 -1 c139 -2 154 -9 195 -87 25 -49 25 -49 30 -389
6 -376 6 -378 72 -429 40 -30 125 -53 140 -38 14 14 11 822 -3 877 -17 64 -68
162 -102 196 -95 94 -149 108 -440 111 -126 2 -231 1 -233 -1z"/>
<path d="M6540 1819 c-158 -20 -316 -143 -379 -294 -66 -158 -74 -331 -24
-505 31 -108 64 -168 127 -233 92 -94 207 -139 361 -140 170 -2 312 63 399
182 50 68 48 84 -19 117 -71 34 -122 29 -220 -22 -166 -86 -337 -39 -412 114
-27 54 -28 64 -27 192 0 111 4 143 20 183 49 116 137 177 257 177 59 0 80 -5
145 -37 100 -48 165 -51 235 -10 26 15 47 34 47 41 0 19 -51 86 -97 127 -56
51 -155 95 -240 108 -79 12 -80 12 -173 0z"/>
<path d="M7585 1816 c-75 -17 -159 -56 -162 -76 -3 -14 32 -39 136 -98 37 -21
62 -26 155 -32 131 -7 185 -29 249 -100 56 -63 78 -120 87 -224 16 -189 -50
-340 -172 -390 -20 -9 -40 -21 -43 -26 -9 -15 20 -47 74 -82 135 -86 283 31
346 271 23 89 20 278 -6 371 -49 180 -154 302 -314 365 -58 23 -88 28 -180 31
-70 2 -132 -1 -170 -10z"/>
<path d="M995 1802 c-57 -21 -93 -42 -99 -57 -2 -6 14 -39 35 -75 22 -35 44
-81 50 -102 11 -42 13 -44 50 -24 129 67 214 53 261 -42 22 -46 23 -57 28
-392 5 -378 7 -385 67 -428 35 -25 101 -45 133 -40 l25 3 -1 425 c0 414 -1
427 -22 485 -44 119 -107 188 -217 236 -72 31 -239 37 -310 11z"/>
<path d="M5201 1723 c-117 -121 -125 -333 -16 -446 64 -67 132 -96 310 -133
184 -39 221 -51 250 -85 30 -37 32 -71 5 -115 -31 -49 -111 -78 -222 -78 -47
0 -92 5 -100 10 -25 20 -108 36 -162 32 -67 -6 -136 -48 -136 -83 0 -31 80
-109 144 -140 143 -69 330 -74 501 -13 136 49 222 169 224 314 2 117 -51 229
-132 281 -56 36 -186 79 -316 104 -130 24 -193 52 -236 102 -52 60 -68 121
-54 208 15 99 3 108 -60 42z"/>
<path d="M8795 1763 c-93 -12 -176 -53 -248 -122 -66 -64 -100 -120 -139 -231
l-33 -95 -3 -533 -3 -532 43 0 c85 1 159 55 187 139 7 23 11 171 11 471 0 493
1 505 71 584 58 66 116 90 219 90 69 1 93 -3 125 -21 88 -47 136 -126 157
-256 20 -129 -15 -240 -103 -322 -53 -50 -97 -65 -189 -65 -69 0 -119 14 -160
43 -43 30 -50 23 -50 -48 0 -77 21 -126 74 -172 51 -45 95 -57 195 -50 216 15
348 117 426 327 24 65 29 94 33 211 4 117 1 146 -18 215 -11 43 -34 101 -50
129 -35 60 -118 143 -181 179 -89 51 -240 76 -364 59z"/>
<path d="M2110 1754 c-232 -42 -383 -184 -436 -410 -22 -96 -15 -255 16 -344
75 -215 200 -320 419 -350 68 -9 93 -8 175 9 52 11 120 31 150 44 88 41 197
153 178 184 -19 29 -79 47 -152 46 -62 0 -87 -6 -143 -32 -114 -52 -238 -41
-317 27 -93 79 -135 254 -94 392 19 66 37 95 83 139 48 44 90 61 170 68 119
10 206 -33 261 -129 53 -93 66 -88 -219 -88 -277 0 -268 2 -255 -69 12 -60 32
-98 66 -123 33 -23 35 -23 330 -23 l298 0 27 28 c26 26 28 33 27 105 -3 242
-129 433 -330 502 -57 20 -202 34 -254 24z"/>
<path d="M4356 1739 c-22 -5 -72 -25 -112 -44 -78 -38 -158 -115 -208 -199
-63 -108 -88 -323 -53 -456 51 -194 167 -324 336 -376 162 -51 392 -8 511 93
50 43 102 112 94 124 -16 27 -86 49 -154 49 -59 0 -84 -6 -143 -32 -62 -28
-82 -33 -147 -32 -125 2 -198 51 -252 170 -18 41 -22 67 -23 159 0 118 8 149
57 222 38 56 97 89 184 104 60 10 79 9 125 -4 86 -25 156 -96 183 -184 l7 -23
-253 -2 -253 -3 1 -57 c1 -66 30 -120 77 -146 28 -15 64 -17 315 -15 316 2
320 2 349 71 15 34 15 46 0 135 -40 239 -163 392 -353 441 -68 17 -224 20
-288 5z"/>
</g>
</svg>
