<?xml version="1.0" encoding="UTF-8"?>
<svg version="1.1" xmlns="http://www.w3.org/2000/svg" width="520" height="513">
<path d="M0 0 C1.13474762 0.00140488 1.13474762 0.00140488 2.29241943 0.00283813 C13.45923268 0.03280328 24.41723685 0.25883295 35.4375 2.1875 C36.28731445 2.32752441 37.13712891 2.46754883 38.01269531 2.61181641 C61.93089391 6.66268261 85.69503421 14.41274232 107.4375 25.1875 C108.1790332 25.5474707 108.92056641 25.90744141 109.68457031 26.27832031 C135.02346106 38.66551238 158.24226171 55.53547911 178.4375 75.1875 C179.44127686 76.15260498 179.44127686 76.15260498 180.46533203 77.13720703 C189.43393905 85.78196455 197.78734074 94.53792162 205.20654297 104.55078125 C206.42073915 106.16521425 207.67165502 107.74151055 208.94140625 109.3125 C241.82270681 150.47844749 260.7116898 203.75403314 260.625 256.3125 C260.62406342 257.04693329 260.62312683 257.78136658 260.62216187 258.53805542 C260.59267247 269.20551614 260.39614955 279.66299174 258.4375 290.1875 C258.27620605 291.07630859 258.11491211 291.96511719 257.94873047 292.88085938 C251.14679378 329.57119884 237.44274624 364.81367508 215.4375 395.1875 C214.67695313 396.24066406 213.91640625 397.29382813 213.1328125 398.37890625 C197.42332965 419.6600915 179.41314818 440.21235123 158.05371094 455.97705078 C156.46141514 457.16958893 154.90595099 458.41080053 153.3515625 459.65234375 C130.15586057 478.14463509 103.47754704 491.75056703 75.4375 501.1875 C74.59445312 501.47705566 73.75140625 501.76661133 72.8828125 502.06494141 C50.44243901 509.67799943 27.6173337 513.05276876 3.95800781 512.83935547 C0.43705782 512.81249663 -3.08070613 512.83933471 -6.6015625 512.87109375 C-29.9971042 512.90599838 -52.4581063 508.76760279 -74.5625 501.1875 C-75.46967773 500.88392578 -76.37685547 500.58035156 -77.31152344 500.26757812 C-114.95653825 487.52697727 -149.11568567 465.86914364 -177.5625 438.1875 C-178.23168457 437.54409668 -178.90086914 436.90069336 -179.59033203 436.23779297 C-188.55893905 427.59303545 -196.91234074 418.83707838 -204.33154297 408.82421875 C-205.54573915 407.20978575 -206.79665502 405.63348945 -208.06640625 404.0625 C-240.94770681 362.89655251 -259.8366898 309.62096686 -259.75 257.0625 C-259.74906342 256.32806671 -259.74812683 255.59363342 -259.74716187 254.83694458 C-259.71767247 244.16948386 -259.52114955 233.71200826 -257.5625 223.1875 C-257.40120605 222.29869141 -257.23991211 221.40988281 -257.07373047 220.49414062 C-250.27179378 183.80380116 -236.56774624 148.56132492 -214.5625 118.1875 C-213.80195313 117.13433594 -213.04140625 116.08117187 -212.2578125 114.99609375 C-196.54832965 93.7149085 -178.53814818 73.16264877 -157.17871094 57.39794922 C-155.58641514 56.20541107 -154.03095099 54.96419947 -152.4765625 53.72265625 C-129.28086057 35.23036491 -102.60254704 21.62443297 -74.5625 12.1875 C-73.71945313 11.89794434 -72.87640625 11.60838867 -72.0078125 11.31005859 C-48.67868315 3.39548376 -24.55818249 -0.03928826 0 0 Z " fill="#FDFDFD" transform="translate(259.5625,-0.1875)"/>
<path d="M0 0 C0.70366699 0.10683105 1.40733398 0.21366211 2.13232422 0.32373047 C18.39977545 2.79488981 34.30949119 8.87299412 48 18 C48.30225532 20.90135327 48.40928762 23.59006191 48.38818359 26.49438477 C48.39606903 27.81448547 48.39606903 27.81448547 48.40411377 29.16125488 C48.41737555 32.08814986 48.40854266 35.01450511 48.3984375 37.94140625 C48.40045917 39.98290613 48.40337138 42.0244053 48.40713501 44.06590271 C48.41156892 48.36098046 48.40510306 52.65587163 48.39111328 56.95092773 C48.37418258 62.41087608 48.38375227 67.87037676 48.40183067 73.33030796 C48.41277896 77.55758402 48.40916937 81.78475778 48.4014473 86.01203728 C48.39946713 88.02152498 48.40182635 90.03102245 48.40888596 92.04049873 C48.45042118 107.21317817 48.09606714 122.7931895 41.75 136.875 C41.44626465 137.57641113 41.1425293 138.27782227 40.82958984 139.00048828 C28.86540163 165.84741088 5.41144441 185.45313242 -20 199 C-21.09957031 199.60199219 -22.19914062 200.20398438 -23.33203125 200.82421875 C-32.65568185 205.75621149 -32.65568185 205.75621149 -38 205 C-41.49025136 203.59947272 -44.76151164 201.85844795 -48.0625 200.0625 C-49.46640991 199.30924438 -49.46640991 199.30924438 -50.89868164 198.54077148 C-78.06627604 183.73850193 -103.4717906 161.29303218 -113 131 C-113.32410355 130.04448746 -113.64820709 129.08897491 -113.98213196 128.10450745 C-117.52928833 116.53945902 -117.67246428 105.33564144 -117.70703125 93.30859375 C-117.72245744 91.14721886 -117.73830883 88.98584697 -117.75456238 86.82447815 C-117.78283151 82.32554036 -117.79442166 77.82690271 -117.79614258 73.32788086 C-117.80135967 67.56708734 -117.86671545 61.80862477 -117.94643116 56.0484457 C-117.99837944 51.59853966 -118.00970404 47.14920376 -118.00964928 42.69902229 C-118.01620472 40.57428455 -118.03745255 38.44953825 -118.07383156 36.32510185 C-118.33338728 19.77544288 -118.33338728 19.77544288 -115.05007935 15.40362549 C-112.70734719 13.80277493 -110.69083265 12.86227662 -108 12 C-106.85015625 11.41992188 -105.7003125 10.83984375 -104.515625 10.2421875 C-91.56224145 4.81912022 -78.80808505 1.32195659 -65 -1 C-63.96230469 -1.20753906 -62.92460937 -1.41507813 -61.85546875 -1.62890625 C-41.54181907 -5.28280802 -20.20852714 -3.3701156 0 0 Z " fill="#F8F8F9" transform="translate(292,208)"/>
<path d="M0 0 C1.13474762 0.00140488 1.13474762 0.00140488 2.29241943 0.00283813 C13.45923268 0.03280328 24.41723685 0.25883295 35.4375 2.1875 C36.28731445 2.32752441 37.13712891 2.46754883 38.01269531 2.61181641 C61.93089391 6.66268261 85.69503421 14.41274232 107.4375 25.1875 C108.1790332 25.5474707 108.92056641 25.90744141 109.68457031 26.27832031 C135.02346106 38.66551238 158.24226171 55.53547911 178.4375 75.1875 C179.44127686 76.15260498 179.44127686 76.15260498 180.46533203 77.13720703 C189.43393905 85.78196455 197.78734074 94.53792162 205.20654297 104.55078125 C206.42073915 106.16521425 207.67165502 107.74151055 208.94140625 109.3125 C241.82270681 150.47844749 260.7116898 203.75403314 260.625 256.3125 C260.62406342 257.04693329 260.62312683 257.78136658 260.62216187 258.53805542 C260.59267247 269.20551614 260.39614955 279.66299174 258.4375 290.1875 C258.27620605 291.07630859 258.11491211 291.96511719 257.94873047 292.88085938 C251.14679378 329.57119884 237.44274624 364.81367508 215.4375 395.1875 C214.67695313 396.24066406 213.91640625 397.29382813 213.1328125 398.37890625 C197.42332965 419.6600915 179.41314818 440.21235123 158.05371094 455.97705078 C156.46141514 457.16958893 154.90595099 458.41080053 153.3515625 459.65234375 C130.15586057 478.14463509 103.47754704 491.75056703 75.4375 501.1875 C74.59445312 501.47705566 73.75140625 501.76661133 72.8828125 502.06494141 C50.44243901 509.67799943 27.6173337 513.05276876 3.95800781 512.83935547 C0.43705782 512.81249663 -3.08070613 512.83933471 -6.6015625 512.87109375 C-29.9971042 512.90599838 -52.4581063 508.76760279 -74.5625 501.1875 C-75.46967773 500.88392578 -76.37685547 500.58035156 -77.31152344 500.26757812 C-114.95653825 487.52697727 -149.11568567 465.86914364 -177.5625 438.1875 C-178.23168457 437.54409668 -178.90086914 436.90069336 -179.59033203 436.23779297 C-188.55893905 427.59303545 -196.91234074 418.83707838 -204.33154297 408.82421875 C-205.54573915 407.20978575 -206.79665502 405.63348945 -208.06640625 404.0625 C-240.94770681 362.89655251 -259.8366898 309.62096686 -259.75 257.0625 C-259.74906342 256.32806671 -259.74812683 255.59363342 -259.74716187 254.83694458 C-259.71767247 244.16948386 -259.52114955 233.71200826 -257.5625 223.1875 C-257.40120605 222.29869141 -257.23991211 221.40988281 -257.07373047 220.49414062 C-250.27179378 183.80380116 -236.56774624 148.56132492 -214.5625 118.1875 C-213.80195313 117.13433594 -213.04140625 116.08117187 -212.2578125 114.99609375 C-196.54832965 93.7149085 -178.53814818 73.16264877 -157.17871094 57.39794922 C-155.58641514 56.20541107 -154.03095099 54.96419947 -152.4765625 53.72265625 C-129.28086057 35.23036491 -102.60254704 21.62443297 -74.5625 12.1875 C-73.71945313 11.89794434 -72.87640625 11.60838867 -72.0078125 11.31005859 C-48.67868315 3.39548376 -24.55818249 -0.03928826 0 0 Z M-39.5625 13.1875 C-40.56023437 13.34323486 -41.55796875 13.49896973 -42.5859375 13.65942383 C-83.39561324 20.31332701 -122.31807057 37.2887598 -154.5625 63.1875 C-156.11324219 64.40373047 -156.11324219 64.40373047 -157.6953125 65.64453125 C-174.28461002 79.11538026 -189.35135004 94.6467417 -201.5625 112.1875 C-202.01125488 112.82349121 -202.46000977 113.45948242 -202.92236328 114.11474609 C-217.3808187 134.71287565 -228.64805236 157.30629251 -236.5625 181.1875 C-236.79420898 181.88568848 -237.02591797 182.58387695 -237.26464844 183.30322266 C-240.51062439 193.35812174 -242.4918142 203.60191968 -244.3125 214 C-244.62888428 215.80573486 -244.62888428 215.80573486 -244.95166016 217.64794922 C-247.1388325 230.72612739 -247.77469991 243.62702623 -247.75 256.875 C-247.74873108 257.58081207 -247.74746216 258.28662415 -247.74615479 259.01382446 C-247.70908127 269.86303605 -247.4460184 280.4829414 -245.5625 291.1875 C-245.38477051 292.21810547 -245.20704102 293.24871094 -245.02392578 294.31054688 C-235.87568788 345.80850343 -213.46603916 390.31364467 -177.5625 428.1875 C-177.08941406 428.68926758 -176.61632812 429.19103516 -176.12890625 429.70800781 C-169.06391862 437.15113502 -161.57181088 443.68178853 -153.36132812 449.83300781 C-151.58557817 451.17012246 -149.83129577 452.53190877 -148.078125 453.8984375 C-106.79994656 485.62943697 -54.51392696 501.52603919 -2.8125 501.5625 C-2.07326294 501.56449402 -1.33402588 501.56648804 -0.5723877 501.56854248 C22.72983085 501.56139416 47.31445636 498.56184788 69.4375 491.1875 C70.23349609 490.93548828 71.02949219 490.68347656 71.84960938 490.42382812 C101.02867451 481.16775838 127.48705082 467.20110572 151.4375 448.1875 C151.98680176 447.7553418 152.53610352 447.32318359 153.10205078 446.87792969 C167.2309473 435.67030732 180.61362884 422.62613568 191.4375 408.1875 C191.86579102 407.62498535 192.29408203 407.0624707 192.73535156 406.48291016 C209.50464721 384.42267322 222.15657232 360.28574777 231.4375 334.1875 C231.70143555 333.44951172 231.96537109 332.71152344 232.23730469 331.95117188 C245.72822013 293.53574463 247.71517899 247.92846129 239.4375 208.1875 C239.25026367 207.26485352 239.06302734 206.34220703 238.87011719 205.39160156 C230.16062535 163.37845698 210.53575029 122.8698802 180.80859375 91.67578125 C178.80142041 89.56940659 176.92331128 87.42138347 175.0625 85.1875 C151.98768216 58.79295601 119.59151148 40.07938363 87.4375 27.1875 C86.43686523 26.77661133 85.43623047 26.36572266 84.40527344 25.94238281 C76.50398552 22.77851457 68.59525358 20.49521668 60.3125 18.5625 C59.04857422 18.26327637 57.78464844 17.96405273 56.48242188 17.65576172 C36.67984357 13.05819419 17.36471359 11.0001922 -2.95458984 11.00219727 C-5.4269328 11.00000935 -7.89882904 10.98177223 -10.37109375 10.96289062 C-20.29379537 10.92710458 -29.75351444 11.56423182 -39.5625 13.1875 Z " fill="#060834" transform="translate(259.5625,-0.1875)"/>
<path d="M0 0 C2.88376318 3.40677772 5.03604548 6.71704381 6.98828125 10.7265625 C7.52638428 11.83088623 8.0644873 12.93520996 8.61889648 14.07299805 C9.45723022 15.83123901 9.45723022 15.83123901 10.3125 17.625 C10.74527756 18.5312059 10.74527756 18.5312059 11.1867981 19.45571899 C26.17337784 50.93684102 34.24510923 84.19755709 34.1875 119.125 C34.18656342 119.85943329 34.18562683 120.59386658 34.18466187 121.35055542 C34.15517247 132.01801614 33.95864955 142.47549174 32 153 C31.83870605 153.88880859 31.67741211 154.77761719 31.51123047 155.69335938 C24.70929378 192.38369884 11.00524624 227.62617508 -11 258 C-11.76054687 259.05316406 -12.52109375 260.10632813 -13.3046875 261.19140625 C-29.01417035 282.4725915 -47.02435182 303.02485123 -68.38378906 318.78955078 C-69.97608486 319.98208893 -71.53154901 321.22330053 -73.0859375 322.46484375 C-96.28163943 340.95713509 -122.95995296 354.56306703 -151 364 C-151.84304688 364.28955566 -152.68609375 364.57911133 -153.5546875 364.87744141 C-175.99506099 372.49049943 -198.8201663 375.86526876 -222.47949219 375.65185547 C-226.00044218 375.62499663 -229.51820613 375.65183471 -233.0390625 375.68359375 C-256.4346042 375.71849838 -278.8956063 371.58010279 -301 364 C-301.90717773 363.69642578 -302.81435547 363.39285156 -303.74902344 363.08007812 C-341.39403825 350.33947727 -375.55318567 328.68164364 -404 301 C-404.66918457 300.35659668 -405.33836914 299.71319336 -406.02783203 299.05029297 C-414.99643905 290.40553545 -423.34984074 281.64957838 -430.76904297 271.63671875 C-431.98323915 270.02228575 -433.23415502 268.44598945 -434.50390625 266.875 C-452.4886514 244.35888714 -479.78005626 204.11261837 -478 174 C-477.505 173.01 -477.505 173.01 -477 172 C-475.02 172 -473.04 172 -471 172 C-471 170.68 -471 169.36 -471 168 C-470.34 168 -469.68 168 -469 168 C-467.29333211 171.93502465 -466.27383348 175.82407178 -465.3125 180 C-454.93155561 222.57425974 -432.95436479 259.34594796 -403 291 C-402.12472656 291.92941406 -401.24945313 292.85882813 -400.34765625 293.81640625 C-393.95482198 300.4157638 -387.14119224 306.12150859 -379.81494141 311.62939453 C-378.03368202 312.97456405 -376.27223912 314.34269526 -374.51171875 315.71484375 C-333.22887279 347.44020964 -280.95324766 363.33853791 -229.25 363.375 C-228.51076294 363.37699402 -227.77152588 363.37898804 -227.0098877 363.38104248 C-203.70766915 363.37389416 -179.12304364 360.37434788 -157 353 C-156.20400391 352.74798828 -155.40800781 352.49597656 -154.58789062 352.23632812 C-125.41341439 342.98171405 -98.94236435 329.01909533 -75 310 C-74.44538086 309.56252441 -73.89076172 309.12504883 -73.31933594 308.67431641 C-59.54628834 297.71525212 -46.59264019 285.07111387 -36 271 C-35.57025879 270.43603516 -35.14051758 269.87207031 -34.69775391 269.29101562 C-26.62647178 258.67224389 -19.50434112 247.65361117 -13 236 C-12.319375 236.474375 -11.63875 236.94875 -10.9375 237.4375 C-7.58158044 239.2225636 -4.75838519 239.63153086 -1 240 C-0.76667969 239.22785156 -0.53335937 238.45570313 -0.29296875 237.66015625 C1.0747677 233.78834641 2.69478095 230.10479264 4.37646484 226.36157227 C14.41315223 203.97620825 20.87247122 181.3419858 25.16796875 157.2265625 C25.30485107 156.45908691 25.4417334 155.69161133 25.58276367 154.90087891 C26.71803179 147.00780939 27.17387466 139.18830651 27.23828125 131.21875 C27.2480751 130.21520477 27.25786896 129.21165955 27.26795959 128.17770386 C27.58024718 97.37396062 27.58024718 97.37396062 23 67 C22.78037598 66.02611328 22.56075195 65.05222656 22.33447266 64.04882812 C18.1673579 45.91760271 12.30896896 28.43712593 4.48876953 11.55737305 C2 6.18066842 2 6.18066842 2 4 C1.34 4 0.68 4 0 4 C0 2.68 0 1.36 0 0 Z " fill="#070936" transform="translate(486,137)"/>
<path d="M0 0 C0.70366699 0.10683105 1.40733398 0.21366211 2.13232422 0.32373047 C18.39977545 2.79488981 34.30949119 8.87299412 48 18 C48.30225532 20.90135327 48.40928762 23.59006191 48.38818359 26.49438477 C48.39606903 27.81448547 48.39606903 27.81448547 48.40411377 29.16125488 C48.41737555 32.08814986 48.40854266 35.01450511 48.3984375 37.94140625 C48.40045917 39.98290613 48.40337138 42.0244053 48.40713501 44.06590271 C48.41156892 48.36098046 48.40510306 52.65587163 48.39111328 56.95092773 C48.37418258 62.41087608 48.38375227 67.87037676 48.40183067 73.33030796 C48.41277896 77.55758402 48.40916937 81.78475778 48.4014473 86.01203728 C48.39946713 88.02152498 48.40182635 90.03102245 48.40888596 92.04049873 C48.45042118 107.21317817 48.09606714 122.7931895 41.75 136.875 C41.44626465 137.57641113 41.1425293 138.27782227 40.82958984 139.00048828 C28.86540163 165.84741088 5.41144441 185.45313242 -20 199 C-21.09957031 199.60199219 -22.19914062 200.20398438 -23.33203125 200.82421875 C-32.65568185 205.75621149 -32.65568185 205.75621149 -38 205 C-41.49025136 203.59947272 -44.76151164 201.85844795 -48.0625 200.0625 C-49.46640991 199.30924438 -49.46640991 199.30924438 -50.89868164 198.54077148 C-78.06627604 183.73850193 -103.4717906 161.29303218 -113 131 C-113.32410355 130.04448746 -113.64820709 129.08897491 -113.98213196 128.10450745 C-117.52928833 116.53945902 -117.67246428 105.33564144 -117.70703125 93.30859375 C-117.72245744 91.14721886 -117.73830883 88.98584697 -117.75456238 86.82447815 C-117.78283151 82.32554036 -117.79442166 77.82690271 -117.79614258 73.32788086 C-117.80135967 67.56708734 -117.86671545 61.80862477 -117.94643116 56.0484457 C-117.99837944 51.59853966 -118.00970404 47.14920376 -118.00964928 42.69902229 C-118.01620472 40.57428455 -118.03745255 38.44953825 -118.07383156 36.32510185 C-118.33338728 19.77544288 -118.33338728 19.77544288 -115.05007935 15.40362549 C-112.70734719 13.80277493 -110.69083265 12.86227662 -108 12 C-106.85015625 11.41992188 -105.7003125 10.83984375 -104.515625 10.2421875 C-91.56224145 4.81912022 -78.80808505 1.32195659 -65 -1 C-63.96230469 -1.20753906 -62.92460937 -1.41507813 -61.85546875 -1.62890625 C-41.54181907 -5.28280802 -20.20852714 -3.3701156 0 0 Z M-109 23 C-109.09295815 24.44289787 -109.11746513 25.89029785 -109.11352539 27.33618164 C-109.11344986 28.2570607 -109.11337433 29.17793976 -109.11329651 30.12672424 C-109.10813522 31.12775681 -109.10297394 32.12878937 -109.09765625 33.16015625 C-109.0962413 34.17975937 -109.09482635 35.19936249 -109.09336853 36.24986267 C-109.08775097 39.52077107 -109.0751955 42.79161213 -109.0625 46.0625 C-109.05748726 48.27408756 -109.05292396 50.48567618 -109.04882812 52.69726562 C-109.03777584 58.13153357 -109.02102063 63.56576197 -109 69 C-107.86655151 69.06586304 -107.86655151 69.06586304 -106.71020508 69.13305664 C-105.22363403 69.23928345 -105.22363403 69.23928345 -103.70703125 69.34765625 C-102.72452393 69.41218994 -101.7420166 69.47672363 -100.72973633 69.54321289 C-96.59032504 70.23589141 -95.001931 72.1376937 -92 75 C-88.78734084 76.32350658 -88.78734084 76.32350658 -86 77 C-84.875 81.75 -84.875 81.75 -86 84 C-87.98 84 -89.96 84 -92 84 C-92.4125 82.7625 -92.825 81.525 -93.25 80.25 C-95.12361781 75.36894982 -95.12361781 75.36894982 -99 72 C-101.47434617 71.81828316 -101.47434617 71.81828316 -104.15234375 71.90625 C-105.05847412 71.91978516 -105.96460449 71.93332031 -106.89819336 71.94726562 C-107.59178955 71.96466797 -108.28538574 71.98207031 -109 72 C-109.07524476 77.1370946 -109.12910777 82.27385498 -109.16479492 87.41137695 C-109.17970213 89.15199383 -109.20003508 90.89257438 -109.22631836 92.63305664 C-109.62891733 120.01768047 -102.54657437 142.42365032 -84 163 C-83.67 163 -83.34 163 -83 163 C-81.33520564 151.73605618 -81.33520564 151.73605618 -84.16162109 141.18115234 C-86.17660791 139.11414005 -88.36717659 137.38156611 -90.64135742 135.61083984 C-94.08339476 132.68317727 -95.38893389 130.67480804 -95.9140625 126.12109375 C-96.09750787 122.71066314 -96.02409171 119.34113132 -95.91015625 115.9296875 C-95.93980469 114.63289063 -95.96945313 113.33609375 -96 112 C-96.99 111.34 -97.98 110.68 -99 110 C-99.25 106.9375 -99.25 106.9375 -99 104 C-98 103 -98 103 -95 102.875 C-92 103 -92 103 -91 104 C-90.8125 106.9375 -90.8125 106.9375 -91 110 C-91.99 110.99 -91.99 110.99 -93 112 C-93.98241079 117.9069003 -94.58965036 124.15305507 -93 130 C-91.00445452 132.24904165 -89.40206964 133.79465256 -87.0625 135.5625 C-83.56620495 138.24580713 -81.30041832 140.33681452 -80.49462891 144.79785156 C-80.26841834 149.22016632 -80.35097672 153.60810628 -80.44946289 158.03320312 C-80.63482305 164.75863995 -80.63482305 164.75863995 -77.7890625 170.6171875 C-73.90749104 174.32681982 -73.90749104 174.32681982 -69 176 C-68.70022117 170.80844567 -68.48425928 165.6220563 -68.34082031 160.42382812 C-68.28097284 158.66186704 -68.19944902 156.90048914 -68.09472656 155.140625 C-67.15952637 144.05461055 -67.15952637 144.05461055 -71.68725586 134.40649414 C-73.7886553 132.3315743 -76.02496904 130.44831881 -78.28369141 128.54833984 C-81.05719261 125.94634402 -81.88380836 124.91392049 -82.28515625 121.21484375 C-82.26367188 119.04882812 -82.26367188 119.04882812 -82.0625 116.9375 C-81.52676916 111.72270152 -81.52676916 111.72270152 -83.48046875 107.16796875 C-83.98191406 106.78253906 -84.48335937 106.39710938 -85 106 C-85.25 103.375 -85.25 103.375 -85 101 C-84 100 -84 100 -81 99.875 C-78 100 -78 100 -77 101 C-76.8125 103.9375 -76.8125 103.9375 -77 107 C-77.99 107.99 -77.99 107.99 -79 109 C-80.00293334 113.96388525 -80.43217654 119.08696753 -79 124 C-77.00702738 125.96564435 -75.19341382 127.49007917 -72.984375 129.14453125 C-68.98008206 132.63072821 -66.7124609 135.50977595 -66.08056641 140.87695312 C-65.81758223 146.52953492 -66.06910868 152.16625605 -66.375 157.8125 C-67.71861924 170.30479236 -67.71861924 170.30479236 -64.08496094 181.68920898 C-61.46652549 183.55846684 -58.97056704 184.77735651 -56 186 C-54.37486682 186.93900496 -52.75971088 187.89554193 -51.15625 188.87109375 C-49.60735018 189.73231313 -48.05527979 190.58785641 -46.5 191.4375 C-45.70335937 191.88287109 -44.90671875 192.32824219 -44.0859375 192.78710938 C-40.25789554 195.14045025 -40.25789554 195.14045025 -36 196 C-36 191.38 -36 186.76 -36 182 C-35.01 182 -34.02 182 -33 182 C-33 186.29 -33 190.58 -33 195 C-28.32416261 194.07511527 -28.32416261 194.07511527 -24.328125 192.14453125 C-23.66296875 191.76876953 -22.9978125 191.39300781 -22.3125 191.00585938 C-21.631875 190.61205078 -20.95125 190.21824219 -20.25 189.8125 C-19.58484375 189.43802734 -18.9196875 189.06355469 -18.234375 188.67773438 C-16.85977252 187.89394661 -15.50186887 187.08025066 -14.16088867 186.24023438 C-12 185 -12 185 -9.48950195 184.10351562 C-6.38057004 182.74769029 -4.95664124 181.80643144 -3 179 C-1.39979155 171.24968332 -2.43458456 162.7906595 -2.83813477 154.94726562 C-3.6417502 137.36540318 -3.6417502 137.36540318 0.68994141 132.24804688 C2.28425824 130.63812093 3.88449593 129.23164257 5.70051575 127.87765503 C7.99262938 126.16283566 9.77763776 124.80916475 10.55380249 121.98474121 C10.989518 117.58970849 10.64507565 113.37217939 10 109 C8.515 108.505 8.515 108.505 7 108 C6.95758277 105.66705225 6.95907063 103.33297433 7 101 C8 100 8 100 11 99.875 C14 100 14 100 15 101 C15.1875 103.9375 15.1875 103.9375 15 107 C14.34 107.66 13.68 108.32 13 109 C12.85482256 111.9093558 12.81369204 114.719946 12.875 117.625 C12.88402344 118.42679687 12.89304687 119.22859375 12.90234375 120.0546875 C12.92593777 122.03658523 12.96180935 124.01832981 13 126 C12.43724365 126.25982666 11.8744873 126.51965332 11.29467773 126.78735352 C6.4042753 129.37173791 2.87991919 132.21639289 0 137 C-1.47671074 143.3704947 -0.84737582 150.08441198 -0.5625 156.5625 C-0.51729385 158.3521126 -0.47624003 160.14183517 -0.43945312 161.93164062 C-0.34088648 166.29050244 -0.18596249 170.64402731 0 175 C4.1863938 173.01571417 7.58647638 171.06918703 10 167 C10.55999229 162.96429716 10.2594341 158.99728002 10.0625 154.9375 C9.91113536 142.41991302 9.91113536 142.41991302 13.9375 138.06640625 C15.69774266 136.47823743 17.52488715 135.02937485 19.39282227 133.57055664 C22.75271935 130.78804589 24.38304792 128.97633578 24.96484375 124.5546875 C25.41407662 116.86118332 25.41407662 116.86118332 22.421875 110.171875 C21.95265625 109.78515625 21.4834375 109.3984375 21 109 C21.42105263 104.57894737 21.42105263 104.57894737 23 103 C25.4375 102.8125 25.4375 102.8125 28 103 C28.66 103.66 29.32 104.32 30 105 C29.75 108.0625 29.75 108.0625 29 111 C28.01 111.495 28.01 111.495 27 112 C27.03222656 113.26714844 27.06445312 114.53429687 27.09765625 115.83984375 C27.12280706 129.18168896 27.12280706 129.18168896 24.0703125 134.125 C21.15706704 136.95228084 18.02953182 139.27067471 14.72265625 141.61328125 C11.98953031 145.39999316 12.57578035 149.21358847 12.75 153.75 C12.76804687 154.63816406 12.78609375 155.52632812 12.8046875 156.44140625 C12.85172626 158.62870848 12.91742991 160.81379816 13 163 C17.94865204 159.11011269 21.71811305 155.16204762 25.125 149.875 C25.76610718 148.89539307 25.76610718 148.89539307 26.42016602 147.89599609 C30.04928474 142.20605886 32.74352539 136.36251858 35 130 C35.29390625 129.2575 35.5878125 128.515 35.890625 127.75 C40.58573946 115.22969477 40.26894697 101.7812098 40.125 88.625 C40.11493716 87.00260977 40.10581722 85.38021341 40.09765625 83.7578125 C40.07593419 79.83838617 40.04159219 75.91926375 40 72 C38.22040536 71.94428801 36.44031312 71.90429651 34.66015625 71.87109375 C33.66894775 71.84716553 32.67773926 71.8232373 31.65649414 71.79858398 C28.7992283 71.76304392 28.7992283 71.76304392 26.4375 74.0625 C24.81324027 77.38163946 23.84564168 80.40602288 23 84 C21.00045254 84.04254356 18.99958364 84.04080783 17 84 C16 83 16 83 15.9375 79.9375 C15.958125 78.968125 15.97875 77.99875 16 77 C17.953125 76.34895833 19.90625 75.69791667 21.859375 75.046875 C24.56612297 73.86662555 24.56612297 73.86662555 28 70 C33.94 69.505 33.94 69.505 40 69 C40 53.82 40 38.64 40 23 C18.98139 12.490695 -0.63272254 5.70120279 -24.0625 5.9375 C-25.3609082 5.94426758 -25.3609082 5.94426758 -26.68554688 5.95117188 C-28.79039539 5.96280087 -30.89520758 5.98072927 -33 6 C-33 9.96 -33 13.92 -33 18 C-34.32 18 -35.64 18 -37 18 C-37 14.04 -37 10.08 -37 6 C-57.84698793 4.86974162 -93.09042845 7.09042845 -109 23 Z " fill="#090C3B" transform="translate(292,208)"/>
<path d="M0 0 C0.99 0.33 1.98 0.66 3 1 C1.57039584 4.47619539 -0.09652293 5.96490345 -3.125 8.125 C-5.64960435 10.24181889 -6.83918635 11.34276159 -7.62890625 14.5703125 C-7.82402006 19.58373641 -7.82402006 19.58373641 -5.45703125 23.796875 C-4.97621094 24.19390625 -4.49539062 24.5909375 -4 25 C-3.87625 23.88625 -3.7525 22.7725 -3.625 21.625 C-3 18 -3 18 -1 16 C3.55555556 16.55555556 3.55555556 16.55555556 5 18 C5 20.97 5 23.94 5 27 C16.55 27 28.1 27 40 27 C40 24.03 40 21.06 40 18 C40.66 17.34 41.32 16.68 42 16 C44.625 16.375 44.625 16.375 47 17 C47.66 19.31 48.32 21.62 49 24 C49.66 23.67 50.32 23.34 51 23 C51.64613828 19.15906691 51.83300837 15.82203842 51 12 C48.08221614 8.41675667 44.73445912 5.70081419 41 3 C41.33 2.01 41.66 1.02 42 0 C47.59282703 2.53506646 52.21456762 6.16693873 56 11 C57.32469749 15.29691792 57.33365537 18.70333656 56 23 C54.20424636 25.14978583 52.34554363 26.60124088 50.07421875 28.234375 C47.66996674 30.28093227 46.85195629 31.98700181 45.625 34.875 C42.76856423 41.28480259 37.31843262 46.84078369 31 50 C31 50.66 31 51.32 31 52 C32.47479678 53.26411152 34.0071727 54.46140193 35.5625 55.625 C43.21539699 61.60856819 49.94301337 68.16223787 52 78 C52.88007594 87.03159902 51.52934155 94.31963547 46.01171875 101.63671875 C41.94024378 106.34106548 37.67069968 110.33587165 32.53125 113.84375 C30.84560348 114.93854487 30.84560348 114.93854487 30 117 C30.57878906 117.26554687 31.15757812 117.53109375 31.75390625 117.8046875 C39.45425672 121.90261314 45.25038989 128.75116966 48 137 C48.11829437 138.8514445 48.17514861 140.70732138 48.1875 142.5625 C48.20167969 143.53316406 48.21585937 144.50382813 48.23046875 145.50390625 C48 148 48 148 46 150 C42.875 149.625 42.875 149.625 40 149 C40 146.03 40 143.06 40 140 C28.45 140 16.9 140 5 140 C5 142.64 5 145.28 5 148 C3 150 3 150 0.5 150.25 C-2 150 -2 150 -4 148 C-5.47160935 140.89665488 -3.279491 135.04734528 0.078125 128.84375 C3.75599009 123.40170573 8.58280017 119.61146655 14 116 C13.05898437 115.24976563 12.11796875 114.49953125 11.1484375 113.7265625 C3.94230864 107.85089979 -1.98001 102.58738289 -6 94 C-6.33 93.34 -6.66 92.68 -7 92 C-7.7330114 82.35566427 -8.28027784 73.92012816 -2 66 C-1.278125 64.989375 -0.55625 63.97875 0.1875 62.9375 C3.88538746 58.70282243 8.55382382 55.40154061 13 52 C11.61148295 48.73663252 10.10704742 47.08419557 7.3125 44.9375 C3.0750048 41.37953106 0.59776831 37.42591734 -2.19140625 32.69140625 C-4.03209904 29.95223274 -5.94120144 28.13655079 -8.4375 26 C-11.55918316 23.0009763 -12.70969591 20.90212681 -13.125 16.5625 C-12.78459514 11.47061062 -10.85157996 9.30658828 -7.125 5.9375 C-5.43269955 4.60439152 -3.72684049 3.28805316 -2 2 C-1.34 1.34 -0.68 0.68 0 0 Z " fill="#0C0E3D" transform="translate(235,225)"/>
<path d="M0 0 C4.54658164 1.48389382 6.52555782 4.87232111 9.05859375 8.671875 C9.2717436 12.0822726 9.14348775 14.41719299 8.05859375 17.671875 C9.27546875 17.548125 10.49234375 17.424375 11.74609375 17.296875 C15.612097 17.28319003 15.9114772 17.53115483 18.93359375 20.421875 C19.98546875 22.030625 19.98546875 22.030625 21.05859375 23.671875 C21.49171875 24.331875 21.92484375 24.991875 22.37109375 25.671875 C23.36288231 28.55707809 23.42316996 30.63373991 23.05859375 33.671875 C18.64903314 42.30726453 9.49816734 48.01038201 1.80859375 53.546875 C1.0196875 54.12695312 0.23078125 54.70703125 -0.58203125 55.3046875 C-1.34515625 55.85640625 -2.10828125 56.408125 -2.89453125 56.9765625 C-3.57676758 57.47140137 -4.25900391 57.96624023 -4.96191406 58.47607422 C-6.96967148 59.68894988 -8.64893515 60.23683088 -10.94140625 60.671875 C-18.48869973 51.0897239 -25.94234743 41.47575452 -32.953125 31.4921875 C-34.16645905 29.77111249 -35.41197294 28.07146099 -36.7109375 26.4140625 C-37.94140625 24.671875 -37.94140625 24.671875 -37.94140625 22.671875 C-35.60398761 20.75337035 -33.25794001 18.94985796 -30.81640625 17.171875 C-30.09372559 16.64303711 -29.37104492 16.11419922 -28.62646484 15.56933594 C-27.12928742 14.47470305 -25.63073337 13.38195072 -24.13085938 12.29101562 C-22.09214596 10.78334977 -20.0989968 9.23271187 -18.11328125 7.65625 C-7.26633428 -0.81134767 -7.26633428 -0.81134767 0 0 Z " fill="#0E103F" transform="translate(137.94140625,127.328125)"/>
<path d="M0 0 C4.66364049 0.75827523 7.62080938 2.54574527 11.48828125 5.16015625 C12.1838916 5.61398682 12.87950195 6.06781738 13.59619141 6.53540039 C15.63439195 7.87286617 17.65628082 9.23217234 19.67578125 10.59765625 C20.72894531 11.29632813 21.78210938 11.995 22.8671875 12.71484375 C29.35392563 17.11487281 29.35392563 17.11487281 31.67578125 20.59765625 C31.89023194 30.67683849 23.97262656 39.6700682 17.765625 46.953125 C14.94895971 49.16960367 13.26538561 49.57574169 9.67578125 49.59765625 C7.06066913 48.41759432 4.92565268 47.26955959 2.55078125 45.72265625 C1.90278564 45.31644043 1.25479004 44.91022461 0.5871582 44.49169922 C-15.5969298 34.18858967 -15.5969298 34.18858967 -19.32421875 28.59765625 C-19.17313683 22.44862208 -16.83466427 18.45755706 -13.57421875 13.47265625 C-13.14367187 12.78300781 -12.713125 12.09335938 -12.26953125 11.3828125 C-5.64877809 1.01558525 -5.64877809 1.01558525 0 0 Z " fill="#FBFBFB" transform="translate(364.32421875,124.40234375)"/>
<path d="M0 0 C0.66818756 0.00091644 1.33637512 0.00183289 2.02481079 0.0027771 C3.43523276 0.00880446 4.84564243 0.02452492 6.25585938 0.04931641 C8.40022678 0.08570273 10.54285675 0.09033632 12.6875 0.08984375 C24.80375918 0.17652844 24.80375918 0.17652844 30.0390625 2.4609375 C32.15173669 5.62994878 32.29461814 6.4367601 32.3046875 10.06640625 C32.30855469 11.41895508 32.30855469 11.41895508 32.3125 12.79882812 C32.30476563 13.73919922 32.29703125 14.67957031 32.2890625 15.6484375 C32.30066406 17.02999023 32.30066406 17.02999023 32.3125 18.43945312 C32.27363604 32.12928161 32.27363604 32.12928161 28.41503906 36.15551758 C25.12148986 37.96507446 22.53549343 37.8495798 18.7890625 37.859375 C18.09393555 37.86224518 17.39880859 37.86511536 16.68261719 37.86807251 C15.21678856 37.87010884 13.75093249 37.86460906 12.28515625 37.85205078 C10.04625473 37.8359891 7.80915813 37.85191208 5.5703125 37.87109375 C4.1432252 37.86911124 2.71613901 37.8652674 1.2890625 37.859375 C-0.00515625 37.85599121 -1.299375 37.85260742 -2.6328125 37.84912109 C-6.13238158 37.44094072 -7.53600201 36.96606655 -9.9609375 34.4609375 C-11.72267388 29.17572835 -11.23046592 23.55531259 -11.2734375 18.0234375 C-11.30244141 16.78271484 -11.33144531 15.54199219 -11.36132812 14.26367188 C-11.36970703 13.07193359 -11.37808594 11.88019531 -11.38671875 10.65234375 C-11.40130127 9.56123291 -11.41588379 8.47012207 -11.4309082 7.34594727 C-10.9609375 4.4609375 -10.9609375 4.4609375 -9.36938477 2.1027832 C-6.11386976 -0.11651111 -3.92222319 -0.026002 0 0 Z " fill="#FBFBFB" transform="translate(249.9609375,95.5390625)"/>
<path d="M0 0 C-0.84369851 6.17388791 -1.69924837 12.34084511 -2.765625 18.48046875 C-2.89735107 19.24182129 -3.02907715 20.00317383 -3.16479492 20.78759766 C-3.42007931 22.24784315 -3.68023756 23.70724972 -3.9465332 25.16552734 C-5.99747149 36.91882519 -6.20339257 48.78396377 -6.1875 60.6875 C-6.18756042 61.38699768 -6.18762085 62.08649536 -6.18768311 62.80718994 C-6.17097762 76.41983117 -5.46736249 89.74778252 -2.3671875 103.0546875 C-2 105 -2 105 -2 109 C-2.66 109 -3.32 109 -4 109 C-4 110.32 -4 111.64 -4 113 C-5.98 113 -7.96 113 -10 113 C-10.33 114.65 -10.66 116.3 -11 118 C-12.78027713 114.82379696 -13.56558301 111.87572601 -14.25390625 108.30859375 C-14.46853516 107.19806641 -14.68316406 106.08753906 -14.90429688 104.94335938 C-15.12150391 103.78642578 -15.33871094 102.62949219 -15.5625 101.4375 C-15.78357422 100.30763672 -16.00464844 99.17777344 -16.23242188 98.01367188 C-18.59780893 85.60074946 -19.2082857 73.47699382 -19.1875 60.875 C-19.18656342 60.14056671 -19.18562683 59.40613342 -19.18466187 58.64944458 C-19.13031564 38.9902993 -17.25998209 18.77994628 -11 0 C-6.9947103 -1.06022374 -4.04399749 -0.75614912 0 0 Z " fill="#14153B" transform="translate(19,196)"/>
<path d="M0 0 C2.88376318 3.40677772 5.03604548 6.71704381 6.98828125 10.7265625 C7.52638428 11.83088623 8.0644873 12.93520996 8.61889648 14.07299805 C9.17778564 15.24515869 9.7366748 16.41731934 10.3125 17.625 C10.60101837 18.22913727 10.88953674 18.83327454 11.1867981 19.45571899 C26.17337784 50.93684102 34.24510923 84.19755709 34.1875 119.125 C34.18656342 119.85943329 34.18562683 120.59386658 34.18466187 121.35055542 C34.15517247 132.01801614 33.95864955 142.47549174 32 153 C31.83870605 153.88880859 31.67741211 154.77761719 31.51123047 155.69335938 C26.40341389 183.24544234 17.45405956 207.78461141 4.625 232.6875 C4.12532715 233.66178955 3.6256543 234.6360791 3.11083984 235.63989258 C2.63340332 236.54634521 2.1559668 237.45279785 1.6640625 238.38671875 C1.24592285 239.18295654 0.8277832 239.97919434 0.39697266 240.79956055 C-1.14147959 243.22285137 -2.90713042 245.04619059 -5 247 C-3.73017601 243.74508958 -2.36127044 240.58432438 -0.828125 237.4453125 C4.18299318 227.11006409 9.12774172 216.82693674 13 206 C13.2794043 205.22172852 13.55880859 204.44345703 13.84667969 203.64160156 C19.10530166 188.72592463 22.54896747 173.61611799 25 158 C25.18691406 156.84193848 25.37382812 155.68387695 25.56640625 154.49072266 C27.31332414 142.39175654 27.39797222 130.33299547 27.375 118.125 C27.37445618 117.03906555 27.37391235 115.9531311 27.37335205 114.83428955 C27.33584465 98.55037697 26.72109471 82.91942256 23 67 C22.78037598 66.02611328 22.56075195 65.05222656 22.33447266 64.04882812 C18.1673579 45.91760271 12.30896896 28.43712593 4.48876953 11.55737305 C2 6.18066842 2 6.18066842 2 4 C1.34 4 0.68 4 0 4 C0 2.68 0 1.36 0 0 Z " fill="#F5F5F6" transform="translate(486,137)"/>
<path d="M0 0 C3.96284765 1.55997812 7.42294098 3.7020373 11 6 C11.6398584 6.40750488 12.2797168 6.81500977 12.93896484 7.23486328 C30.5148483 18.5256605 30.5148483 18.5256605 34 25 C35.57578655 33.14156385 31.47185098 39.19914128 27.1328125 45.87109375 C22.98715514 51.81535343 18.63594293 57.68202853 12 61 C1.60609056 61.88208567 -7.89191758 53.56330253 -16.0625 47.875 C-17.15171753 47.12138184 -17.15171753 47.12138184 -18.26293945 46.35253906 C-22.74605507 43.15833887 -26.48630784 40.02738431 -29 35 C-30.37430425 24.20189517 -23.17075917 15.63607875 -16.93359375 7.39453125 C-12.05378383 1.35145351 -8.00199525 -1.72741485 0 0 Z M-12.0859375 11.25 C-14.45351096 14.65157493 -16.7781089 18.06373449 -19 21.5625 C-19.41040527 22.18713135 -19.82081055 22.8117627 -20.24365234 23.45532227 C-22.31164425 26.8572002 -23.00037686 28.64010158 -22.99609375 32.73046875 C-21.25223342 38.45443384 -16.7844846 40.80121539 -12 44 C-11.29407715 44.47646973 -10.5881543 44.95293945 -9.86083984 45.44384766 C-7.50771814 47.01176928 -5.13448171 48.54274706 -2.75 50.0625 C-1.98179932 50.56426758 -1.21359863 51.06603516 -0.42211914 51.58300781 C3.04154649 53.72201017 5.17339217 54.99022922 9.3046875 55.0390625 C16.5897113 52.23063304 20.70095463 44.22336215 24.5 37.75 C24.85046387 37.16001221 25.20092773 36.57002441 25.56201172 35.9621582 C27.48153038 32.54038653 28.8685224 29.90835078 28 26 C23.88742807 20.70363871 17.86521311 17.37902742 12.3125 13.75 C11.35021484 13.11320313 10.38792969 12.47640625 9.39648438 11.8203125 C-1.85237517 4.35345553 -1.85237517 4.35345553 -12.0859375 11.25 Z " fill="#0D0F3F" transform="translate(368,119)"/>
<path d="M0 0 C1.15951424 -0.00218285 1.15951424 -0.00218285 2.342453 -0.00440979 C3.9738645 -0.00275449 5.60529222 0.00876551 7.23657227 0.02954102 C9.71243971 0.05838372 12.18614758 0.05016539 14.66210938 0.03710938 C16.25391651 0.04335136 17.84571695 0.0517459 19.4375 0.0625 C20.53322075 0.05809654 20.53322075 0.05809654 21.65107727 0.05360413 C27.97159537 0.16748204 33.6977225 1.35651995 38.390625 5.87890625 C40.69868295 11.34504861 40.45712342 16.50135608 40.35546875 22.37109375 C40.36255859 23.51707031 40.36964844 24.66304687 40.37695312 25.84375 C40.32028708 33.41956428 40.0910445 40.239516 34.54296875 45.93359375 C28.19177393 49.71406685 20.38477068 48.71654578 13.23046875 48.74609375 C11.38678711 48.77703125 11.38678711 48.77703125 9.50585938 48.80859375 C2.47184637 48.83860554 -4.70679209 48.84311399 -11.08203125 45.49609375 C-16.93902938 38.97276087 -16.42107392 30.13117213 -16.39453125 21.87109375 C-16.41064453 20.86046875 -16.42675781 19.84984375 -16.44335938 18.80859375 C-16.447806 12.03193166 -15.93924626 7.38145051 -10.97509766 2.3684082 C-7.29238781 -0.01494216 -4.24498072 -0.06474484 0 0 Z M-7.49047852 7.14013672 C-9.52467553 10.15133494 -9.58434357 11.99824786 -9.578125 15.6171875 C-9.57876953 16.79990234 -9.57941406 17.98261719 -9.58007812 19.20117188 C-9.56009766 20.43287109 -9.54011719 21.66457031 -9.51953125 22.93359375 C-9.52662109 24.16142578 -9.53371094 25.38925781 -9.54101562 26.65429688 C-9.58503651 34.57290391 -9.58503651 34.57290391 -6.08203125 41.49609375 C-1.59398651 43.74011612 4.47691497 42.80597824 9.46606445 42.84619141 C10.97045376 42.86273563 12.47476495 42.89000626 13.97875977 42.92822266 C16.15291916 42.98315583 18.32523897 43.00488745 20.5 43.01953125 C22.45256714 43.04926025 22.45256714 43.04926025 24.44458008 43.07958984 C28.78735445 42.35004526 30.22032262 40.90098793 32.91796875 37.49609375 C34.4993594 32.2144048 34.17360441 26.36039791 34.23046875 20.87109375 C34.25947266 19.93007812 34.28847656 18.9890625 34.31835938 18.01953125 C34.43221325 12.6359202 34.43221325 12.6359202 32.1484375 7.91015625 C26.37198588 4.24802755 19.19691783 5.23766722 12.59130859 5.20092773 C11.14231632 5.18937095 9.69336783 5.16886079 8.24462891 5.1394043 C6.14586613 5.09676201 4.04836065 5.08056946 1.94921875 5.0703125 C0.69689453 5.05572998 -0.55542969 5.04114746 -1.84570312 5.02612305 C-5.11283438 5.25864935 -5.11283438 5.25864935 -7.49047852 7.14013672 Z " fill="#121443" transform="translate(248.08203125,90.50390625)"/>
<path d="M0 0 C3.37799675 10.49419276 6.75385016 20.98849446 9.875 31.5625 C10.07762451 32.24497803 10.28024902 32.92745605 10.48901367 33.63061523 C11.49349943 37.06806347 12.32193571 40.48540429 13 44 C8.86523527 45.8783362 5.02255064 47.54018924 0.49902344 46.33203125 C-2.14893775 45.02444834 -4.62309598 43.56921419 -7.125 42 C-9.03946568 40.8760716 -10.954867 39.75373575 -12.87109375 38.6328125 C-13.86351074 38.03887695 -14.85592773 37.44494141 -15.87841797 36.83300781 C-21.22964201 33.69074361 -26.71459855 30.79829997 -32.1875 27.875 C-34.20304246 26.79132771 -36.2174586 25.70555656 -38.23046875 24.6171875 C-39.08020264 24.15940918 -39.92993652 23.70163086 -40.80541992 23.22998047 C-42.58407888 22.23310831 -44.30347786 21.13101476 -46 20 C-43.39582905 29.09972104 -40.24142525 37.98597162 -37.05273438 46.89453125 C-36.66021484 48.00957031 -36.26769531 49.12460938 -35.86328125 50.2734375 C-35.50532471 51.27810059 -35.14736816 52.28276367 -34.77856445 53.31787109 C-34 56 -34 56 -34 60 C-36.97 60.495 -36.97 60.495 -40 61 C-40.31453125 60.03320312 -40.6290625 59.06640625 -40.953125 58.0703125 C-43.73993252 49.51124535 -43.73993252 49.51124535 -47 41.125 C-48.88198438 36.54008332 -50.37236038 31.86329872 -51.8125 27.125 C-52.04388672 26.38652832 -52.27527344 25.64805664 -52.51367188 24.88720703 C-53.61657534 21.16448101 -54.16110844 18.70304986 -53 15 C-48.95430024 13.31186629 -46.5217369 12.49950791 -42.28613281 13.89257812 C-39.16128715 15.40402382 -36.14508154 17.03871278 -33.125 18.75 C-32.02816895 19.34675537 -30.93133789 19.94351074 -29.80126953 20.55834961 C-26.5210782 22.34961058 -23.25994887 24.17222295 -20 26 C-18.20422354 26.98767706 -16.40743873 27.97352431 -14.609375 28.95703125 C-8.0326196 32.56774743 -1.5104207 36.27130451 5 40 C4.41992188 38.27716797 4.41992188 38.27716797 3.828125 36.51953125 C-4.79768426 10.82805237 -4.79768426 10.82805237 -7 0 C-4.3333581 -1.33332095 -2.83319697 -0.67102033 0 0 Z " fill="#111442" transform="translate(212,96)"/>
<path d="M0 0 C10.21474626 6.89075205 19.30438214 21.25052405 25 32 C24.875 34.25 24.875 34.25 24 36 C23.01 36.33 22.02 36.66 21 37 C20.61070312 36.35675781 20.22140625 35.71351563 19.8203125 35.05078125 C15.01816618 27.29431911 9.65409682 20.1410201 4 13 C3.28199219 12.06929687 2.56398438 11.13859375 1.82421875 10.1796875 C-0.60604416 7.27586158 -1.44598711 7.05460223 -5.25 6.6796875 C-9.77062636 7.06582434 -11.49771677 8.30268134 -15 11.125 C-16.02738281 11.95 -17.05476563 12.775 -18.11328125 13.625 C-19.54220703 14.800625 -19.54220703 14.800625 -21 16 C-21.75667969 16.556875 -22.51335937 17.11375 -23.29296875 17.6875 C-23.91816406 18.161875 -24.54335938 18.63625 -25.1875 19.125 C-25.71730469 19.51945312 -26.24710937 19.91390625 -26.79296875 20.3203125 C-28.8299625 23.154964 -28.92390103 25.55742747 -29 29 C-27.50775206 32.2520308 -27.50775206 32.2520308 -25.125 35.25 C-24.72095947 35.80067139 -24.31691895 36.35134277 -23.90063477 36.91870117 C-19.80399888 42.43653815 -15.44274493 47.7590314 -11 53 C-7.56049636 52.38801624 -5.48435515 51.07941153 -2.75 48.9375 C-1.69039063 48.11572266 -1.69039063 48.11572266 -0.609375 47.27734375 C-0.07828125 46.85582031 0.4528125 46.43429688 1 46 C-0.56367357 42.47761953 -2.69495889 39.72876006 -5.125 36.75 C-5.84945313 35.85796875 -6.57390625 34.9659375 -7.3203125 34.046875 C-7.87460937 33.37140625 -8.42890625 32.6959375 -9 32 C-8.34 30.68 -7.68 29.36 -7 28 C-3.67291849 29.40601272 -1.94158963 30.98085007 0.234375 33.84375 C0.80800781 34.59527344 1.38164062 35.34679687 1.97265625 36.12109375 C2.55917969 36.90613281 3.14570313 37.69117188 3.75 38.5 C4.35199219 39.28503906 4.95398438 40.07007813 5.57421875 40.87890625 C10 46.72976899 10 46.72976899 10 49 C7.46328436 51.30257014 4.60280754 53.20485303 1.8125 55.1875 C1.04357422 55.75919922 0.27464844 56.33089844 -0.51757812 56.91992188 C-1.64389648 57.72333008 -1.64389648 57.72333008 -2.79296875 58.54296875 C-3.4789917 59.03821045 -4.16501465 59.53345215 -4.87182617 60.04370117 C-7.66260494 61.29774275 -9.12587883 60.9218768 -12 60 C-21.74445717 52.51705507 -31.07280275 40.25308275 -36 29 C-36.56467272 24.48261822 -36.32304249 21.35926643 -33.51171875 17.66015625 C-25.4413478 8.79734578 -12.92884406 -4.09243725 0 0 Z " fill="#0F1141" transform="translate(427,166)"/>
<path d="M0 0 C1.32 0.33 2.64 0.66 4 1 C4 5.20819463 3.87140439 5.6600197 1.4375 8.72265625 C0.8911792 9.42140869 0.3448584 10.12016113 -0.21801758 10.84008789 C-0.80607178 11.57348389 -1.39412598 12.30687988 -2 13.0625 C-3.19242014 14.58253851 -4.38382603 16.10337322 -5.57421875 17.625 C-6.15864746 18.3675 -6.74307617 19.11 -7.34521484 19.875 C-10.6835203 24.16190036 -13.84040345 28.58038308 -17 33 C-16.42765625 33.27585938 -15.8553125 33.55171875 -15.265625 33.8359375 C-13.01035733 34.99467848 -10.89143622 36.26875706 -8.75 37.625 C-7.69039062 38.29402344 -7.69039062 38.29402344 -6.609375 38.9765625 C-6.07828125 39.31429687 -5.5471875 39.65203125 -5 40 C-3.71269213 38.39086516 -2.42547477 36.78165783 -1.13867188 35.17211914 C-0.04260111 33.80284719 1.05506705 32.43485244 2.15429688 31.06811523 C4.62018135 27.99846664 7.07442601 24.92710436 9.4375 21.77734375 C10.118125 20.88144531 10.79875 19.98554688 11.5 19.0625 C12.0878125 18.26972656 12.675625 17.47695312 13.28125 16.66015625 C15 15 15 15 19 15 C19 19.37703857 18.66780137 19.91524829 16.078125 23.15234375 C15.15773438 24.31733398 15.15773438 24.31733398 14.21875 25.50585938 C13.5690625 26.30830078 12.919375 27.11074219 12.25 27.9375 C11.61578125 28.73607422 10.9815625 29.53464844 10.328125 30.35742188 C7.77067791 33.57287878 5.22204556 36.75140552 2.484375 39.81640625 C0.8126993 41.84648355 0.8126993 41.84648355 0.96484375 44.078125 C2.37834479 46.70243636 4.16640535 47.99511377 6.5625 49.75 C7.38878906 50.36359375 8.21507812 50.9771875 9.06640625 51.609375 C9.70449219 52.06828125 10.34257813 52.5271875 11 53 C14.67388136 49.47019242 17.8717162 45.76099047 20.9375 41.6875 C21.3691748 41.1200708 21.80084961 40.5526416 22.24560547 39.96801758 C23.50128762 38.31514902 24.75159421 36.65836846 26 35 C26.65355469 34.13375 27.30710938 33.2675 27.98046875 32.375 C29.32485666 30.58674055 30.66328983 28.79400575 32 27 C33.32 27.33 34.64 27.66 36 28 C36 32.29877457 35.79504493 32.74815075 33.25390625 35.87109375 C32.66754395 36.60473145 32.08118164 37.33836914 31.47705078 38.09423828 C30.84524902 38.86751465 30.21344727 39.64079102 29.5625 40.4375 C28.27720832 42.04599178 26.99466835 43.65668609 25.71484375 45.26953125 C25.08304199 46.06568848 24.45124023 46.8618457 23.80029297 47.68212891 C19.96344938 52.62205202 16.47275572 57.8000536 13 63 C9.35398076 61.38050927 6.44755512 59.14014876 3.3125 56.6875 C2.1643515 55.79389939 1.01589739 54.90069134 -0.1328125 54.0078125 C-0.74930664 53.52731445 -1.36580078 53.04681641 -2.00097656 52.55175781 C-5.67254938 49.70167026 -9.36882961 46.88384982 -13.0625 44.0625 C-13.78848389 43.50715576 -14.51446777 42.95181152 -15.26245117 42.37963867 C-18.49786658 39.90563117 -21.73450088 37.43428116 -25 35 C-23.30833865 31.26197411 -21.0082559 28.00648715 -18.625 24.6875 C-18.19453369 24.08518555 -17.76406738 23.48287109 -17.32055664 22.86230469 C-13.34488339 17.36133754 -9.13494662 12.06027665 -4.84814453 6.79956055 C-2.16527306 3.57379807 -2.16527306 3.57379807 0 0 Z " fill="#0E113E" transform="translate(85,165)"/>
<path d="M0 0 C1.65 0.66 3.3 1.32 5 2 C4.26905294 7.05485927 2.31619096 11.59903179 0.4375 16.3125 C0.10814453 17.14845703 -0.22121094 17.98441406 -0.56054688 18.84570312 C-1.36998877 20.89863546 -2.18323457 22.94997286 -3 25 C-2.44779785 25.15057861 -1.8955957 25.30115723 -1.32666016 25.45629883 C6.52197589 27.69524894 14.05405614 30.66551716 21.625 33.6875 C22.92823533 34.20415478 24.23161985 34.72043342 25.53515625 35.23632812 C28.69158526 36.48720925 31.84646588 37.74184268 35 39 C34.25 43.75 34.25 43.75 32 46 C26.90918973 44.0257256 21.81886976 42.05019425 16.72900391 40.07348633 C14.99671701 39.40093804 13.26429564 38.728736 11.53173828 38.05688477 C9.04424335 37.09221515 6.55723156 36.12630935 4.0703125 35.16015625 C3.29317902 34.85908463 2.51604553 34.558013 1.71536255 34.24781799 C-3.77225659 32.11387171 -3.77225659 32.11387171 -6 31 C-6.17015625 31.60585937 -6.3403125 32.21171875 -6.515625 32.8359375 C-7.85288644 37.4594478 -9.28668552 42.04070382 -10.9375 46.5625 C-11.23527344 47.38878906 -11.53304687 48.21507812 -11.83984375 49.06640625 C-13 51 -13 51 -15.00390625 51.83984375 C-17 52 -17 52 -19 51 C-17.06616682 44.20311443 -14.80675339 37.62371246 -12.20703125 31.0546875 C-11.85613937 30.15879913 -11.5052475 29.26291077 -11.14372253 28.33987427 C-10.03702849 25.51677496 -8.92486965 22.69586711 -7.8125 19.875 C-7.05497396 17.94545559 -6.29780921 16.01576931 -5.54101562 14.0859375 C-3.69817785 9.38897648 -1.85044045 4.69397074 0 0 Z " fill="#11133E" transform="translate(51,214)"/>
<path d="M0 0 C0.66 0 1.32 0 2 0 C3.73616693 4.55505334 4.65275212 7.286097 2.88476562 11.92822266 C1.11902285 15.14132079 -0.76811749 18.22810079 -2.75 21.3125 C-4.05754842 23.43343548 -5.36485044 25.5545229 -6.671875 27.67578125 C-7.2606543 28.60302002 -7.84943359 29.53025879 -8.45605469 30.4855957 C-9.76582685 32.61863547 -10.92698787 34.74118377 -12 37 C-11.43796875 37.13535156 -10.8759375 37.27070313 -10.296875 37.41015625 C-0.32222765 39.96501224 9.31521016 43.53169246 19 47 C19.495 50.465 19.495 50.465 20 54 C11.13276263 52.38522941 3.29582131 48.95665504 -4.9375 45.36914062 C-11.91405954 42.45097922 -16.2624088 41.1907052 -23.546875 43.97265625 C-24.63742187 44.51212891 -24.63742187 44.51212891 -25.75 45.0625 C-28.55503301 46.44049699 -29.812053 47 -33 47 C-33.33 44.69 -33.66 42.38 -34 40 C-32.99582031 39.85691406 -31.99164063 39.71382812 -30.95703125 39.56640625 C-24.85956737 38.2501212 -19.91027187 36.5358859 -16.046875 31.40722656 C-12.3199322 25.17773723 -9.3141588 18.61874903 -6.37353516 11.98974609 C-4.47620634 7.85986898 -2.29099691 3.92230242 0 0 Z " fill="#0E1040" transform="translate(460,212)"/>
<path d="M0 0 C3.18533648 2.69528471 3.90100875 4.38405445 4.5625 8.5 C3.44334172 15.46365152 -4.24460588 19.74849675 -9.5625 23.875 C-10.31724609 24.48085937 -11.07199219 25.08671875 -11.84960938 25.7109375 C-12.58115234 26.278125 -13.31269531 26.8453125 -14.06640625 27.4296875 C-14.72584229 27.94772949 -15.38527832 28.46577148 -16.06469727 28.99951172 C-18 30 -18 30 -20.11206055 29.81713867 C-23.14220145 28.50563194 -24.40532923 26.11227261 -26.25 23.4375 C-26.95640625 22.42558594 -27.6628125 21.41367188 -28.390625 20.37109375 C-28.92171875 19.58863281 -29.4528125 18.80617187 -30 18 C-25.77423423 13.49421361 -21.09251966 9.84584576 -16.125 6.1875 C-15.34769531 5.59001953 -14.57039062 4.99253906 -13.76953125 4.37695312 C-9.11303735 0.95306055 -6.00884587 -1.0052822 0 0 Z " fill="#F9F9FA" transform="translate(150,150)"/>
<path d="M0 0 C3.12111524 2.19321612 3.88302501 3.53210006 4.8125 7.25 C2.70785473 16.96374742 -11.15268968 23.55264945 -19 29 C-25.93092105 22.10361842 -25.93092105 22.10361842 -28 19 C-27.9765625 17.15234375 -27.9765625 17.15234375 -27 15 C-25.03204446 13.22532581 -23.13103797 11.67590221 -21 10.125 C-20.41347656 9.68953857 -19.82695313 9.25407715 -19.22265625 8.80541992 C-18.04055027 7.93322876 -16.85438119 7.06651553 -15.6640625 6.20556641 C-14.20197189 5.14632294 -12.75586478 4.06509025 -11.3125 2.98046875 C-10.549375 2.43003906 -9.78625 1.87960938 -9 1.3125 C-8.34 0.83425781 -7.68 0.35601562 -7 -0.13671875 C-4.30009357 -1.30210805 -2.76707601 -0.86217213 0 0 Z " fill="#F9F9F9" transform="translate(137,134)"/>
<path d="M0 0 C2.31 0.33 4.62 0.66 7 1 C5.04815853 8.31084481 3.00034443 15.59485207 0.9375 22.875 C0.6801709 23.79047607 0.4228418 24.70595215 0.15771484 25.64916992 C-0.83400856 29.13558735 -1.8058246 32.52705794 -3.18359375 35.8828125 C-4.23985762 38.24383291 -4.23985762 38.24383291 -4 42 C-3.10075806 42.24907104 -3.10075806 42.24907104 -2.18334961 42.50317383 C0.56668731 43.26794246 3.31458003 44.04016103 6.0625 44.8125 C7.00544922 45.07353516 7.94839844 45.33457031 8.91992188 45.60351562 C14.14395197 47.07789346 19.07065719 48.72334098 24 51 C23.67 52.65 23.34 54.3 23 56 C15.79934938 54.58558649 8.88238299 52.46915617 1.90625 50.2265625 C-2.11240299 48.9409837 -6.17657671 47.86376691 -10.27734375 46.87109375 C-12 46 -12 46 -12.71582031 44.33789062 C-13.10847605 41.10758881 -12.26289236 38.81622813 -11.26953125 35.72265625 C-10.87830078 34.48580078 -10.48707031 33.24894531 -10.08398438 31.97460938 C-9.66046967 30.67047109 -9.2366403 29.36643496 -8.8125 28.0625 C-8.0064061 25.53258532 -7.20041586 23.00263761 -6.39453125 20.47265625 C-5.79825928 18.61858154 -5.79825928 18.61858154 -5.18994141 16.72705078 C-3.41423498 11.16530799 -1.70317717 5.58437094 0 0 Z " fill="#111341" transform="translate(309,97)"/>
<path d="M0 0 C3 0.25 3 0.25 5 2.25 C5.125 5.375 5.125 5.375 5 8.25 C4.01 8.58 3.02 8.91 2 9.25 C1.30481591 20.90637467 1.30481591 20.90637467 4.4609375 31.75 C6.35524971 33.36026934 6.35524971 33.36026934 8.5234375 34.671875 C11.78104527 36.74770077 14.2986543 39.32128689 17 42.0625 C17.73935791 42.78481812 17.73935791 42.78481812 18.49365234 43.52172852 C19.70372628 44.72431701 20.85722604 45.98328548 22 47.25 C22 47.91 22 48.57 22 49.25 C23.32 49.58 24.64 49.91 26 50.25 C27.33157895 55.69736842 27.33157895 55.69736842 25.875 58.125 C23.36737712 59.62957373 21.87879197 59.6818188 19 59.25 C17.125 58.25 17.125 58.25 16 56.25 C16.33644531 55.06921875 16.67289063 53.8884375 17.01953125 52.671875 C17.43289508 50.48791759 17.43289508 50.48791759 17 48.25 C14.28335397 44.86476154 10.88874617 42.26976838 7.5625 39.5 C-2.37818277 30.58079761 -2.37818277 30.58079761 -3.265625 23.56640625 C-3.39217845 18.70027679 -2.86200262 14.03386249 -2 9.25 C-2.66 9.25 -3.32 9.25 -4 9.25 C-4.625 5.875 -4.625 5.875 -5 2.25 C-3 0.25 -3 0.25 0 0 Z " fill="#1C1D4E" transform="translate(200,235.75)"/>
<path d="M0 0 C14.19 0 28.38 0 43 0 C42.67 2.64 42.34 5.28 42 8 C36.17928378 8.02464638 30.35859766 8.0428343 24.5378418 8.05493164 C22.55606559 8.05997267 20.57429311 8.06680538 18.5925293 8.07543945 C15.75047891 8.08751515 12.90847753 8.09323045 10.06640625 8.09765625 C8.72891075 8.10539818 8.72891075 8.10539818 7.36439514 8.11329651 C5.24259399 8.11349177 3.1208922 8.0621003 1 8 C0.67 7.67 0.34 7.34 0 7 C0 4.69 0 2.38 0 0 Z " fill="#E9EAEE" transform="translate(236,308)"/>
<path d="M0 0 C2.5625 0.375 2.5625 0.375 4.4375 2.0625 C5.84111489 4.94770838 5.48304342 6.36231243 4.5625 9.375 C3.5725 9.705 2.5825 10.035 1.5625 10.375 C1.61486816 10.95878418 1.66723633 11.54256836 1.72119141 12.14404297 C3.02329304 28.84061207 3.02329304 28.84061207 -0.3828125 34.75 C-2.93355146 37.24613598 -5.52465363 39.3174149 -8.4375 41.375 C-9.97172999 42.6928961 -11.49407047 44.02485628 -13 45.375 C-13.64066406 45.91125 -14.28132813 46.4475 -14.94140625 47 C-16.56043931 48.32427544 -16.56043931 48.32427544 -17.4375 50.375 C-17.23125 51.509375 -17.025 52.64375 -16.8125 53.8125 C-16.4375 57.375 -16.4375 57.375 -17.5 59.375 C-20.37817863 60.86051155 -22.3827585 60.17188909 -25.4375 59.375 C-26.4375 58.375 -26.4375 58.375 -26.8125 55 C-26.68875 53.80375 -26.565 52.6075 -26.4375 51.375 C-24.25 49.75 -24.25 49.75 -21.4375 48.375 C-19.76348158 46.71571766 -18.09832492 45.04748801 -16.4375 43.375 C-15.26102835 42.39374121 -14.07697953 41.42151745 -12.88671875 40.45703125 C-4.9694697 33.87992182 -4.9694697 33.87992182 -1.421875 24.5625 C-0.93862076 16.53721622 -0.93862076 16.53721622 -4.015625 9.546875 C-4.48484375 9.16015625 -4.9540625 8.7734375 -5.4375 8.375 C-5.16776072 3.96925843 -4.87687802 0.75028893 0 0 Z " fill="#141846" transform="translate(314.4375,234.625)"/>
<path d="M0 0 C3 0.25 3 0.25 5 2.25 C4.75 5.8125 4.75 5.8125 4 9.25 C3.01 9.745 3.01 9.745 2 10.25 C0.11317643 24.80602824 0.11317643 24.80602824 4.23828125 38.22265625 C8.42687681 42.85438146 12.99820856 45.55810034 19 47.25 C20.33157895 52.69736842 20.33157895 52.69736842 18.875 55.125 C16.36737712 56.62957373 14.87879197 56.6818188 12 56.25 C10.1875 55.125 10.1875 55.125 9 53.25 C9.13148438 51.83847656 9.13148438 51.83847656 9.265625 50.3984375 C9.35185024 47.07347347 9.35185024 47.07347347 6.62890625 45.171875 C5.61699219 44.45515625 4.60507813 43.7384375 3.5625 43 C0.12509647 40.17197388 -1.72693459 37.68423575 -2.57080078 33.25195312 C-3.12707424 26.4353958 -3.04042314 19.63145332 -2.7421875 12.80273438 C-3.0472737 9.78191872 -3.79766676 9.19955884 -6 7.25 C-5.66963219 2.73497322 -4.81520347 0.40126696 0 0 Z " fill="#212152" transform="translate(216,223.75)"/>
<path d="M0 0 C3.5625 0.1875 3.5625 0.1875 5.5625 2.1875 C5.875 4.625 5.875 4.625 5.5625 7.1875 C5.06363281 7.61998047 4.56476563 8.05246094 4.05078125 8.49804688 C1.91167295 10.92629974 2.29827597 12.59342921 2.4375 15.78125 C2.81276802 35.40933688 2.81276802 35.40933688 -0.94140625 40.140625 C-2.87549898 42.09494354 -4.79786141 43.50260949 -7.06640625 45.109375 C-9.78935024 47.01097347 -9.78935024 47.01097347 -9.703125 50.3359375 C-9.61546875 51.27695312 -9.5278125 52.21796875 -9.4375 53.1875 C-10.625 55.0625 -10.625 55.0625 -12.4375 56.1875 C-15 56.5 -15 56.5 -17.4375 56.1875 C-19.4375 54.1875 -19.4375 54.1875 -19.6875 51.1875 C-19.4375 48.1875 -19.4375 48.1875 -17.4375 46.1875 C-16.07625 45.8471875 -16.07625 45.8471875 -14.6875 45.5 C-10.83117046 43.94263615 -9.31728377 42.07526292 -6.83203125 38.84375 C-5.4375 37.1875 -5.4375 37.1875 -2.4375 35.1875 C-1.98747955 32.6053472 -1.98747955 32.6053472 -2.07421875 29.59375 C-2.07486328 28.48128906 -2.07550781 27.36882812 -2.07617188 26.22265625 C-2.09228516 25.05605469 -2.10839844 23.88945312 -2.125 22.6875 C-2.12177734 21.52089844 -2.11855469 20.35429687 -2.11523438 19.15234375 C-1.71215868 13.09488711 -1.71215868 13.09488711 -4.4375 8.1875 C-4.625 4.625 -4.625 4.625 -4.4375 1.1875 C-3.4375 0.1875 -3.4375 0.1875 0 0 Z " fill="#161647" transform="translate(298.4375,223.8125)"/>
<path d="M0 0 C0.81509537 -0.00570007 1.63019073 -0.01140015 2.46998596 -0.01727295 C4.19750667 -0.02673627 5.92504554 -0.0332622 7.65258789 -0.03710938 C10.30191351 -0.04682187 12.95046583 -0.07783464 15.59960938 -0.109375 C17.27473496 -0.11590403 18.94986611 -0.12115489 20.625 -0.125 C21.42087021 -0.1373468 22.21674042 -0.1496936 23.03672791 -0.16241455 C25.27124023 -0.15332031 25.27124023 -0.15332031 28.87890625 0.203125 C30.87890625 3.203125 30.87890625 3.203125 30.87890625 7.203125 C17.01890625 7.203125 3.15890625 7.203125 -11.12109375 7.203125 C-8.41411152 -0.91782169 -7.70735617 0.0410522 0 0 Z " fill="#FBFBFC" transform="translate(247.12109375,297.796875)"/>
<path d="M0 0 C3 0.25 3 0.25 5 2.25 C5.25 5.25 5.25 5.25 5 8.25 C4.34 8.91 3.68 9.57 3 10.25 C2.92922787 12.20455975 2.86815674 14.16038596 2.87597656 16.11621094 C2.87184449 25.93814009 2.87184449 25.93814009 0.3359375 29.75390625 C-1.6942976 31.45337271 -3.77788053 32.81586616 -6 34.25 C-9.62868097 37.12607324 -10.88350898 38.52314318 -11.62768555 43.16650391 C-11.65511426 44.68627892 -11.65675868 46.20667209 -11.63671875 47.7265625 C-11.64709671 48.5336264 -11.65747467 49.34069031 -11.66816711 50.17221069 C-11.69778381 52.74024417 -11.69448135 55.306827 -11.6875 57.875 C-11.69639391 60.4499068 -11.7123352 63.02442764 -11.7389679 65.59921265 C-11.7538803 67.19845095 -11.75768766 68.79783998 -11.74919128 70.39712524 C-11.76887891 74.21939404 -11.82748773 75.9912316 -14 79.25 C-14.29934632 73.48873468 -14.51557278 67.73209706 -14.65917969 61.96484375 C-14.71909303 60.00896288 -14.80066535 58.05360957 -14.90527344 56.09960938 C-15.80621901 38.8226531 -15.80621901 38.8226531 -11.30834961 33.49633789 C-9.71886101 31.88658951 -8.12097445 30.47665263 -6.31304932 29.11773682 C-4.04640195 27.41372335 -2.23981246 26.05030761 -1.40760803 23.27305603 C-0.85443047 18.82431276 -1.01027348 14.6145317 -2 10.25 C-3.44771594 8.48809122 -3.44771594 8.48809122 -5 7.25 C-5.3125 4.6875 -5.3125 4.6875 -5 2.25 C-3 0.25 -3 0.25 0 0 Z " fill="#010337" transform="translate(303,306.75)"/>
<path d="M0 0 C12.21 0 24.42 0 37 0 C31 8 31 8 28.01147461 9.00341797 C26.98546143 8.99971191 25.95944824 8.99600586 24.90234375 8.9921875 C23.77119141 8.99347656 22.64003906 8.99476563 21.47460938 8.99609375 C19.72374023 8.93615234 19.72374023 8.93615234 17.9375 8.875 C16.76638672 8.88917969 15.59527344 8.90335937 14.38867188 8.91796875 C6.15213376 8.79580675 6.15213376 8.79580675 3.07861328 6.67285156 C1.25071283 4.56121154 0 2.85644765 0 0 Z " fill="#EFF0F3" transform="translate(239,319)"/>
<path d="M0 0 C3 0.25 3 0.25 5 2.25 C5.25 5.25 5.25 5.25 5 8.25 C4.34 8.91 3.68 9.57 3 10.25 C1.99698037 15.21431235 1.56919109 20.33632774 3 25.25 C4.99034199 27.21789317 6.80027839 28.74276711 9.0078125 30.3984375 C13.01114448 33.88718974 15.28149665 36.79234417 15.98681641 42.14599609 C16.32545985 47.77740691 16.05124374 53.37299431 15.75 59 C15.68969746 60.96858601 15.63496387 62.93735089 15.5859375 64.90625 C15.45477514 69.69197876 15.24841419 74.46898231 15 79.25 C14.67 79.25 14.34 79.25 14 79.25 C13.67 66.05 13.34 52.85 13 39.25 C11.68 38.59 10.36 37.93 9 37.25 C4.53873453 34.16091164 -0.26402243 30.69270452 -1.45605469 25.11669922 C-1.87195641 20.12693411 -1.51889108 15.21982346 -1 10.25 C-1.99 9.92 -2.98 9.59 -4 9.25 C-4.625 5.875 -4.625 5.875 -5 2.25 C-3 0.25 -3 0.25 0 0 Z " fill="#1E2153" transform="translate(211,306.75)"/>
<path d="M0 0 C2.07513172 -0.04788766 4.15088457 -0.07302505 6.2265625 -0.078125 C7.268125 -0.12710937 8.3096875 -0.17609375 9.3828125 -0.2265625 C10.89488281 -0.23816406 10.89488281 -0.23816406 12.4375 -0.25 C13.3557959 -0.26643555 14.2740918 -0.28287109 15.22021484 -0.29980469 C17.8515625 0.671875 17.8515625 0.671875 22.8515625 8.671875 C11.9615625 8.671875 1.0715625 8.671875 -10.1484375 8.671875 C-5.90916711 0.19333423 -5.90916711 0.19333423 0 0 Z " fill="#E7E9EE" transform="translate(251.1484375,353.328125)"/>
<path d="M0 0 C10.23 0 20.46 0 31 0 C28.53279791 6.16800522 28.53279791 6.16800522 26 8 C22.38734588 8.68550947 18.73307178 8.55544573 15.0625 8.5625 C14.06025391 8.59923828 13.05800781 8.63597656 12.02539062 8.67382812 C9.21880986 8.69067884 6.73714988 8.6254225 4 8 C0 3.67489115 0 3.67489115 0 0 Z " fill="#EAEBEF" transform="translate(242,255)"/>
<path d="M0 0 C1.051875 0.7115625 1.051875 0.7115625 2.125 1.4375 C5.16081337 3.08739857 7.59168786 3.60368464 11 4 C8.72796473 13.25042933 3.3978702 20.31335182 -2 28 C-3.0546875 26.140625 -3.0546875 26.140625 -4 24 C-3.125 21.75 -3.125 21.75 -2 20 C-0.68 20 0.64 20 2 20 C1.67 19.01 1.34 18.02 1 17 C0.01 16.67 -0.98 16.34 -2 16 C-2.66 17.32 -3.32 18.64 -4 20 C-4.99 19.67 -5.98 19.34 -7 19 C-6.67 18.01 -6.34 17.02 -6 16 C-6.99 15.67 -7.98 15.34 -9 15 C-8.43410156 14.08476562 -7.86820312 13.16953125 -7.28515625 12.2265625 C-6.54422663 11.02606894 -5.80334364 9.82554661 -5.0625 8.625 C-4.68931641 8.02171875 -4.31613281 7.4184375 -3.93164062 6.796875 C-1.86411035 3.45600369 -1.86411035 3.45600369 0 0 Z " fill="#060835" transform="translate(473,373)"/>
<path d="M0 0 C1.875 1.125 1.875 1.125 3 3 C2.6875 6.1875 2.6875 6.1875 2 9 C1.01 9.33 0.02 9.66 -1 10 C-0.82597656 11.88332031 -0.82597656 11.88332031 -0.6484375 13.8046875 C0.25754987 27.94345302 0.25754987 27.94345302 -3.15625 32.48828125 C-9.71508683 39 -9.71508683 39 -13 39 C-13.33 39.99 -13.66 40.98 -14 42 C-14.99 41.01 -15.98 40.02 -17 39 C-16.14535156 38.33097656 -15.29070312 37.66195312 -14.41015625 36.97265625 C-7.22644292 30.94217564 -7.22644292 30.94217564 -3.98046875 22.41796875 C-3.65758061 18.26029639 -3.74373848 14.15932153 -4 10 C-4.99 9.67 -5.98 9.34 -7 9 C-8.33157895 3.55263158 -8.33157895 3.55263158 -6.875 1.125 C-4.36737712 -0.37957373 -2.87879197 -0.4318188 0 0 Z " fill="#181A4A" transform="translate(320,310)"/>
<path d="M0 0 C1.13683228 0.00604248 1.13683228 0.00604248 2.29663086 0.01220703 C6.68126923 0.17081953 9.71579923 0.57947646 13.1875 3.5 C15.625 6.625 15.625 6.625 15.625 8.625 C5.395 8.625 -4.835 8.625 -15.375 8.625 C-11.71528583 1.30557166 -7.71735086 -0.10915631 0 0 Z " fill="#E2E3E8" transform="translate(257.375,286.375)"/>
<path d="M0 0 C3 0.25 3 0.25 5 2.25 C5.125 5.375 5.125 5.375 5 8.25 C4.01 8.58 3.02 8.91 2 9.25 C2 16.18 2 23.11 2 30.25 C1.01 30.25 0.02 30.25 -1 30.25 C-2 29.25 -2 29.25 -2.11352539 27.30053711 C-2.10828857 26.4678833 -2.10305176 25.63522949 -2.09765625 24.77734375 C-2.09282227 23.42866211 -2.09282227 23.42866211 -2.08789062 22.05273438 C-2.07951172 21.10720703 -2.07113281 20.16167969 -2.0625 19.1875 C-2.05798828 18.23810547 -2.05347656 17.28871094 -2.04882812 16.31054688 C-2.0370011 13.95696935 -2.02052025 11.60351523 -2 9.25 C-2.66 9.25 -3.32 9.25 -4 9.25 C-4.625 5.875 -4.625 5.875 -5 2.25 C-3 0.25 -3 0.25 0 0 Z " fill="#151545" transform="translate(200,235.75)"/>
<path d="M0 0 C7.39393019 2.15928935 14.70417741 4.5304518 22 7 C22.33 9.31 22.66 11.62 23 14 C17.5308123 12.98032094 12.32416154 11.56819638 7.0625 9.75 C5.40927734 9.18539063 5.40927734 9.18539063 3.72265625 8.609375 C1 7 1 7 -0.37890625 3.828125 C-0.58386719 2.89484375 -0.78882813 1.9615625 -1 1 C-0.67 0.67 -0.34 0.34 0 0 Z " fill="#121545" transform="translate(457,252)"/>
<path d="M0 0 C0.66 0.66 1.32 1.32 2 2 C1.75 5.5625 1.75 5.5625 1 9 C0.01 9.495 0.01 9.495 -1 10 C-1 18.25 -1 26.5 -1 35 C-1.99 34.67 -2.98 34.34 -4 34 C-4 26.08 -4 18.16 -4 10 C-5.32 9.34 -6.64 8.68 -8 8 C-8.9375 5.5625 -8.9375 5.5625 -9 3 C-6.83087664 -0.70026925 -3.97666252 -0.4230492 0 0 Z " fill="#131042" transform="translate(219,224)"/>
<path d="M0 0 C10.23 0.33 20.46 0.66 31 1 C30.67 2.32 30.34 3.64 30 5 C20.43 5 10.86 5 1 5 C0.67 3.35 0.34 1.7 0 0 Z " fill="#020535" transform="translate(242,133)"/>
<path d="M0 0 C9.62844093 -0.77096057 9.62844093 -0.77096057 12.85546875 1.04296875 C14.26520769 2.33176494 15.6335829 3.66536004 17 5 C18.98014432 5.72351427 20.97821315 6.40265389 23 7 C23.66 7.66 24.32 8.32 25 9 C24.43181818 14.56818182 24.43181818 14.56818182 23 16 C20.0625 16.1875 20.0625 16.1875 17 16 C15 14 15 14 14.0625 10.5625 C12.62816671 5.75326483 11.07572577 4.71715051 7 2 C4.67612053 1.60612212 2.34206251 1.26513915 0 1 C0 0.67 0 0.34 0 0 Z " fill="#12134A" transform="translate(183,277)"/>
<path d="M0 0 C0.66 0.99 1.32 1.98 2 3 C1.01 4.98 0.02 6.96 -1 9 C2.3 9 5.6 9 9 9 C7.68 11.97 6.36 14.94 5 18 C-2.42857143 18.28571429 -2.42857143 18.28571429 -6 16 C-5.52412884 9.97229862 -2.80277043 5.23321711 0 0 Z " fill="#03052F" transform="translate(480,359)"/>
<path d="M0 0 C3 0.25 3 0.25 5 2.25 C5.25 5.25 5.25 5.25 5 8.25 C4.34 8.91 3.68 9.57 3 10.25 C2.69324768 13.14967757 2.48826629 15.96783178 2.375 18.875 C2.33632812 19.67679687 2.29765625 20.47859375 2.2578125 21.3046875 C2.16346069 23.28607556 2.08063785 25.26800645 2 27.25 C1.67 27.25 1.34 27.25 1 27.25 C1 24.61 1 21.97 1 19.25 C0.34 19.25 -0.32 19.25 -1 19.25 C-1 16.28 -1 13.31 -1 10.25 C-2.32 9.59 -3.64 8.93 -5 8.25 C-5.125 5.375 -5.125 5.375 -5 2.25 C-3 0.25 -3 0.25 0 0 Z " fill="#151549" transform="translate(197,309.75)"/>
<path d="M0 0 C3 0.25 3 0.25 5 2.25 C5.125 5.375 5.125 5.375 5 8.25 C3.02 9.24 3.02 9.24 1 10.25 C1.02320313 11.14203125 1.04640625 12.0340625 1.0703125 12.953125 C1.08835938 14.12359375 1.10640625 15.2940625 1.125 16.5 C1.14820313 17.66015625 1.17140625 18.8203125 1.1953125 20.015625 C1 23.25 1 23.25 -1 27.25 C-1 21.64 -1 16.03 -1 10.25 C-1.99 9.92 -2.98 9.59 -4 9.25 C-4.625 5.875 -4.625 5.875 -5 2.25 C-3 0.25 -3 0.25 0 0 Z " fill="#0C0B41" transform="translate(211,306.75)"/>
<path d="M0 0 C0.99 0.33 1.98 0.66 3 1 C1.57039584 4.47619539 -0.09652293 5.96490345 -3.125 8.125 C-5.6146556 10.21775398 -6.83575375 11.30843686 -7.59375 14.5 C-7.6473731 19.00434041 -7.14976178 22.96919667 -5 27 C-7.89841863 25.70070889 -9.99169828 24.47986428 -12 22 C-13.03632173 18.16874995 -12.99618072 14.83657294 -12 11 C-9.07419187 7.42049781 -5.69207539 4.75392509 -2 2 C-1.34 1.34 -0.68 0.68 0 0 Z " fill="#151544" transform="translate(235,225)"/>
<path d="M0 0 C5.5794219 2.5289903 10.25261637 6.15208363 14 11 C15.04097845 15.16391379 15.18172584 18.85773996 14 23 C11.9453125 24.8515625 11.9453125 24.8515625 10 26 C9.01 25.34 8.02 24.68 7 24 C7.66 23.67 8.32 23.34 9 23 C9.64613828 19.15906691 9.83300837 15.82203842 9 12 C6.08221614 8.41675667 2.73445912 5.70081419 -1 3 C-0.67 2.01 -0.34 1.02 0 0 Z " fill="#1B1C49" transform="translate(277,225)"/>
<path d="M0 0 C0.33 0 0.66 0 1 0 C1.33 3.3 1.66 6.6 2 10 C1.34 10 0.68 10 0 10 C0 11.32 0 12.64 0 14 C-1.98 14 -3.96 14 -6 14 C-6.33 15.65 -6.66 17.3 -7 19 C-9.02907167 15.6853333 -9.12742133 13.5684021 -8.625 9.75 C-8.51414062 8.85796875 -8.40328125 7.9659375 -8.2890625 7.046875 C-8.14597656 6.03367187 -8.14597656 6.03367187 -8 5 C-5.36 5 -2.72 5 0 5 C0 3.35 0 1.7 0 0 Z " fill="#0D0E38" transform="translate(15,295)"/>
<path d="M0 0 C2 2 2 2 2.25 5.5 C2 9 2 9 0 11 C-3 11.25 -3 11.25 -6 11 C-8 9 -8 9 -8.25 6 C-8 3 -8 3 -6 1 C-3 0.25 -3 0.25 0 0 Z " fill="#1E1F4D" transform="translate(315,282)"/>
<path d="M0 0 C2.5625 0.375 2.5625 0.375 4.4375 2.0625 C5.5625 4.375 5.5625 4.375 5.5 7 C4.5625 9.375 4.5625 9.375 2.75 10.75 C0.20214771 11.4779578 -0.99365732 11.35253707 -3.4375 10.375 C-4.0975 9.715 -4.7575 9.055 -5.4375 8.375 C-4.80113636 0.73863636 -4.80113636 0.73863636 0 0 Z " fill="#242451" transform="translate(314.4375,234.625)"/>
<path d="M0 0 C2.5625 0.3125 2.5625 0.3125 4.4375 1.4375 C5.5625 3.3125 5.5625 3.3125 5.375 6.4375 C5.106875 7.38625 4.83875 8.335 4.5625 9.3125 C3.5725 9.8075 3.5725 9.8075 2.5625 10.3125 C2.5625 9.6525 2.5625 8.9925 2.5625 8.3125 C0.5825 8.9725 -1.3975 9.6325 -3.4375 10.3125 C-5.4375 7.3125 -5.4375 7.3125 -5.1875 4.75 C-4.19253762 1.51637226 -3.41216263 0.43745675 0 0 Z " fill="#1B1C4C" transform="translate(317.4375,309.6875)"/>
<path d="M0 0 C3 0.25 3 0.25 5 2.25 C5.3125 5.25 5.3125 5.25 5 8.25 C4.01 8.91 3.02 9.57 2 10.25 C0.35 9.26 -1.3 8.27 -3 7.25 C-3.33 7.91 -3.66 8.57 -4 9.25 C-4.625 5.875 -4.625 5.875 -5 2.25 C-3 0.25 -3 0.25 0 0 Z " fill="#17174A" transform="translate(303,306.75)"/>
<path d="M0 0 C2.18380083 1.09190042 3.42698959 2.1409877 5 4 C5 4.99 5 5.98 5 7 C5.66 7.33 6.32 7.66 7 8 C5.875 9.5625 5.875 9.5625 4 11 C-1.43478261 10.56521739 -1.43478261 10.56521739 -3 9 C-3.25 5.5625 -3.25 5.5625 -3 2 C-2.01 1.34 -1.02 0.68 0 0 Z " fill="#1A1B49" transform="translate(291,284)"/>
<path d="M0 0 C1.57554035 2.88628401 2.46276373 5.53342384 3.125 8.75 C3.29257813 9.54921875 3.46015625 10.3484375 3.6328125 11.171875 C3.81457031 12.07679688 3.81457031 12.07679688 4 13 C1.36 13.99 -1.28 14.98 -4 16 C-4.66 13.36 -5.32 10.72 -6 8 C-4.02 7.67 -2.04 7.34 0 7 C0 4.69 0 2.38 0 0 Z " fill="#12143D" transform="translate(185,329)"/>
<path d="M0 0 C0.33 0.66 0.66 1.32 1 2 C2.32 1.67 3.64 1.34 5 1 C5.33 2.32 5.66 3.64 6 5 C6.66 4.34 7.32 3.68 8 3 C7.25 7.75 7.25 7.75 5 10 C2.5 10.25 2.5 10.25 0 10 C-2 8 -2 8 -2.25 5 C-2 2 -2 2 0 0 Z " fill="#171749" transform="translate(281,270)"/>
<path d="M0 0 C0.66 0 1.32 0 2 0 C2.33 1.98 2.66 3.96 3 6 C3.99 6 4.98 6 6 6 C6 5.01 6 4.02 6 3 C5.34 2.67 4.68 2.34 4 2 C4 1.34 4 0.68 4 0 C5.65 0.33 7.3 0.66 9 1 C10.33157895 6.44736842 10.33157895 6.44736842 8.875 8.875 C6.36737712 10.37957373 4.87879197 10.4318188 2 10 C0.125 8.9375 0.125 8.9375 -1 7 C-0.6875 3.3125 -0.6875 3.3125 0 0 Z " fill="#19194C" transform="translate(226,270)"/>
<path d="M0 0 C2.475 0.99 2.475 0.99 5 2 C5 7.94 5 13.88 5 20 C3.68 20.33 2.36 20.66 1 21 C1.01160156 19.73542969 1.02320313 18.47085937 1.03515625 17.16796875 C1.04453566 15.50781398 1.0536357 13.84765761 1.0625 12.1875 C1.07087891 11.35412109 1.07925781 10.52074219 1.08789062 9.66210938 C1.09111328 8.85966797 1.09433594 8.05722656 1.09765625 7.23046875 C1.10289307 6.49207764 1.10812988 5.75368652 1.11352539 4.99291992 C1.07523213 2.78942591 1.07523213 2.78942591 0 0 Z " fill="#0D0F43" transform="translate(300,314)"/>
<path d="M0 0 C2.5 1.25 2.5 1.25 5 3 C5 4.32 5 5.64 5 7 C4.01 7 3.02 7 2 7 C2 14.26 2 21.52 2 29 C1.67 29 1.34 29 1 29 C1 22.4 1 15.8 1 9 C0.34 9 -0.32 9 -1 9 C-1.625 5.625 -1.625 5.625 -2 2 C-1.34 1.34 -0.68 0.68 0 0 Z " fill="#535278" transform="translate(197,236)"/>
<path d="M0 0 C0.75 1.76171875 0.75 1.76171875 1 4 C-0.6875 5.89453125 -0.6875 5.89453125 -3 7.8125 C-5.25833067 9.8115234 -5.25833067 9.8115234 -7 12 C-7.21081851 15.89459074 -7.21081851 15.89459074 -6 19 C-6.66 19 -7.32 19 -8 19 C-8.28875 18.38125 -8.5775 17.7625 -8.875 17.125 C-9.93720042 14.86674235 -9.93720042 14.86674235 -12 13 C-10.56652501 9.61042892 -8.81218308 7.7219322 -6 5.375 C-3.92339664 3.6266832 -1.92037235 1.92037235 0 0 Z " fill="#09093A" transform="translate(304,272)"/>
<path d="M0 0 C3.375 -0.125 3.375 -0.125 7 0 C9 2 9 2 9.125 4.625 C9.08375 5.40875 9.0425 6.1925 9 7 C5.88742431 7 3.89234315 6.82638376 1 6 C1 5.01 1 4.02 1 3 C0.34 3 -0.32 3 -1 3 C-0.67 2.01 -0.34 1.02 0 0 Z " fill="#5B5A7D" transform="translate(295,224)"/>
<path d="M0 0 C1.12939453 1.69726562 1.12939453 1.69726562 2 4 C1.28076172 6.31835938 1.28076172 6.31835938 -0.0703125 8.84375 C-0.555 9.76027344 -1.0396875 10.67679687 -1.5390625 11.62109375 C-2.06242187 12.57113281 -2.58578125 13.52117187 -3.125 14.5 C-3.62515625 15.45003906 -4.1253125 16.40007812 -4.640625 17.37890625 C-7.05517253 21.87299864 -9.2398593 25.49497209 -13 29 C-11.67625174 25.60408387 -10.23433435 22.30659891 -8.65234375 19.0234375 C-8.21212891 18.105625 -7.77191406 17.1878125 -7.31835938 16.2421875 C-6.39399684 14.32286049 -5.46951672 12.40359011 -4.54492188 10.484375 C-4.10599609 9.56914062 -3.66707031 8.65390625 -3.21484375 7.7109375 C-2.81386475 6.87868652 -2.41288574 6.04643555 -1.99975586 5.18896484 C-0.90787281 2.90108491 -0.90787281 2.90108491 0 0 Z " fill="#E5E6E7" transform="translate(494,355)"/>
<path d="M0 0 C2.7648665 -0.22417836 4.46277487 -0.32233508 6.875 1.125 C8.55290631 3.92151052 7.74875648 5.93690532 7 9 C3.89448334 9 2.64738916 8.4606285 0 7 C0.875 3.125 0.875 3.125 2 2 C1.34 1.34 0.68 0.68 0 0 Z " fill="#1F2051" transform="translate(200,283)"/>
<path d="M0 0 C4.95 0 9.9 0 15 0 C10 5 10 5 8.0625 6.0625 C4.63341331 5.95858828 2.60771442 4.07431829 0 2 C0 1.34 0 0.68 0 0 Z " fill="#D2D2DB" transform="translate(250,265)"/>
<path d="M0 0 C0.33 0 0.66 0 1 0 C1 6.27 1 12.54 1 19 C1.66 19.33 2.32 19.66 3 20 C2.01 24.95 1.02 29.9 0 35 C-0.33 35 -0.66 35 -1 35 C-1.17691295 23.30408812 -0.62839961 11.67553107 0 0 Z " fill="#000225" transform="translate(504,245)"/>
<path d="M0 0 C4.62 0 9.24 0 14 0 C11.75 2.5 11.75 2.5 9 5 C5 5 5 5 2.25 2.5 C1.5075 1.675 0.765 0.85 0 0 Z " fill="#F3F3F6" transform="translate(250,330)"/>
<path d="M0 0 C0.99 0.33 1.98 0.66 3 1 C3 14.86 3 28.72 3 43 C2.67 43 2.34 43 2 43 C1.67 29.8 1.34 16.6 1 3 C0.34 3 -0.32 3 -1 3 C-0.67 2.01 -0.34 1.02 0 0 Z " fill="#1C214A" transform="translate(223,343)"/>
<path d="M0 0 C3.47775179 1.51553404 5.9557984 3.5773456 8.75 6.125 C9.94882812 7.21167969 9.94882812 7.21167969 11.171875 8.3203125 C11.77515625 8.87460938 12.3784375 9.42890625 13 10 C11.02 10.99 11.02 10.99 9 12 C5.7 9.03 2.4 6.06 -1 3 C-0.67 2.01 -0.34 1.02 0 0 Z " fill="#181A4B" transform="translate(277,225)"/>
<path d="M0 0 C0.66 0.33 1.32 0.66 2 1 C0.58681481 4.3046792 -1.07279525 6.19508587 -3.8125 8.5 C-4.52019531 9.09941406 -5.22789062 9.69882812 -5.95703125 10.31640625 C-8.2858889 12.23559869 -10.62185925 14.14207754 -13 16 C-13.66 15.67 -14.32 15.34 -15 15 C-10.05 10.05 -5.1 5.1 0 0 Z " fill="#161B3F" transform="translate(440,420)"/>
<path d="M0 0 C0.66 0 1.32 0 2 0 C1.67 1.32 1.34 2.64 1 4 C1.99 4.33 2.98 4.66 4 5 C4 5.99 4 6.98 4 8 C2.02 8.66 0.04 9.32 -2 10 C-2 9.34 -2 8.68 -2 8 C-3.98 8.99 -3.98 8.99 -6 10 C-6 9.01 -6 8.02 -6 7 C-5.01 6.34 -4.02 5.68 -3 5 C-2.67 4.01 -2.34 3.02 -2 2 C-1.34 1.34 -0.68 0.68 0 0 Z " fill="#060838" transform="translate(144,141)"/>
<path d="M0 0 C1.98 1.65 3.96 3.3 6 5 C5.67 5.66 5.34 6.32 5 7 C4.84932786 8.4465242 4.75138964 9.8987934 4.68359375 11.3515625 C4.64169922 12.20234375 4.59980469 13.053125 4.55664062 13.9296875 C4.51732422 14.81914062 4.47800781 15.70859375 4.4375 16.625 C4.37272461 17.97078125 4.37272461 17.97078125 4.30664062 19.34375 C4.20043139 21.56234283 4.09838806 23.7810488 4 26 C3.67 26 3.34 26 3 26 C2.98598145 25.13048706 2.98598145 25.13048706 2.97167969 24.2434082 C2.9177593 21.59893054 2.83415871 18.95618107 2.75 16.3125 C2.73582031 15.40048828 2.72164062 14.48847656 2.70703125 13.54882812 C2.50987813 8.12711727 2.13436251 4.92764438 -2 1 C-1.34 0.67 -0.68 0.34 0 0 Z " fill="#181A4F" transform="translate(206,345)"/>
<path d="M0 0 C0.33 0 0.66 0 1 0 C1.11459026 7.41017023 0.91160286 14.64206267 0 22 C-2.30925485 19.55420823 -2.99001814 18.40557866 -3.07421875 14.984375 C-2.94660156 13.91703125 -2.81898438 12.8496875 -2.6875 11.75 C-2.56761719 10.67234375 -2.44773437 9.5946875 -2.32421875 8.484375 C-2.21722656 7.66453125 -2.11023438 6.8446875 -2 6 C-1.34 6 -0.68 6 0 6 C0 4.02 0 2.04 0 0 Z " fill="#1E1F41" transform="translate(513,267)"/>
<path d="M0 0 C0.99 0.33 1.98 0.66 3 1 C3.33 2.98 3.66 4.96 4 7 C1.69 7 -0.62 7 -3 7 C-3.33 5.68 -3.66 4.36 -4 3 C-2.68 2.67 -1.36 2.34 0 2 C0 1.34 0 0.68 0 0 Z " fill="#2C2B58" transform="translate(223,285)"/>
<path d="M0 0 C1.9375 1.0625 1.9375 1.0625 5.9375 5.0625 C1.6475 5.0625 -2.6425 5.0625 -7.0625 5.0625 C-2.68892369 0.08148254 -2.68892369 0.08148254 0 0 Z " fill="#EBEBF0" transform="translate(258.0625,345.9375)"/>
<path d="M0 0 C1.32 0 2.64 0 4 0 C4 0.66 4 1.32 4 2 C3.34 2 2.68 2 2 2 C2 6.95 2 11.9 2 17 C1.34 17.33 0.68 17.66 0 18 C-0.19384179 15.18780295 -0.38036603 12.37545804 -0.5625 9.5625 C-0.61857422 8.76005859 -0.67464844 7.95761719 -0.73242188 7.13085938 C-0.8616295 5.08937889 -0.9351273 3.04453631 -1 1 C-0.67 0.67 -0.34 0.34 0 0 Z " fill="#07073F" transform="translate(316,318)"/>
<path d="M0 0 C0.66 0 1.32 0 2 0 C1.41800054 3.37559685 0.37247717 4.62752283 -2 7 C-3.19027984 9.59915538 -3.19027984 9.59915538 -4 12 C-4.66 10.68 -5.32 9.36 -6 8 C-6.99 8 -7.98 8 -9 8 C-9 7.34 -9 6.68 -9 6 C-8.2575 5.7525 -7.515 5.505 -6.75 5.25 C-3.79396573 3.90634806 -2.23312872 2.31013315 0 0 Z " fill="#08073D" transform="translate(291,264)"/>
<path d="M0 0 C2.375 0.25 2.375 0.25 5 1 C6.125 3 6.125 3 7 5 C7.99 5.33 8.98 5.66 10 6 C9.67 7.32 9.34 8.64 9 10 C7.68 9.67 6.36 9.34 5 9 C5 7.02 5 5.04 5 3 C4.01 3.33 3.02 3.66 2 4 C1.34 2.68 0.68 1.36 0 0 Z " fill="#272758" transform="translate(223,267)"/>
<path d="M0 0 C-0.33 1.65 -0.66 3.3 -1 5 C-3.64 5.33 -6.28 5.66 -9 6 C-8.75 4.125 -8.75 4.125 -8 2 C-5.06004981 -0.02755186 -3.72295997 0 0 0 Z " fill="#05072B" transform="translate(334,340)"/>
<path d="M0 0 C1.32 0.66 2.64 1.32 4 2 C3.8125 3.875 3.8125 3.875 3 6 C0.4375 7.25 0.4375 7.25 -2 8 C-2.33 6.35 -2.66 4.7 -3 3 C-2.01 2.67 -1.02 2.34 0 2 C0 1.34 0 0.68 0 0 Z " fill="#242453" transform="translate(198,310)"/>
<path d="M0 0 C1.32 0.66 2.64 1.32 4 2 C4 2.66 4 3.32 4 4 C3.34 4 2.68 4 2 4 C1.67 4.99 1.34 5.98 1 7 C-0.65 6.67 -2.3 6.34 -4 6 C-4 4.68 -4 3.36 -4 2 C-2.68 2 -1.36 2 0 2 C0 1.34 0 0.68 0 0 Z " fill="#817F9C" transform="translate(212,307)"/>
<path d="M0 0 C0.66 0.66 1.32 1.32 2 2 C2.99 1.34 3.98 0.68 5 0 C5 0.66 5 1.32 5 2 C6.65 2 8.3 2 10 2 C9.67 2.99 9.34 3.98 9 5 C5.7 5 2.4 5 -1 5 C-0.67 3.35 -0.34 1.7 0 0 Z " fill="#040829" transform="translate(480,363)"/>
<path d="M0 0 C-1.47797262 3.67056937 -3.47615477 5.41085783 -6.625 7.75 C-7.44226563 8.36359375 -8.25953125 8.9771875 -9.1015625 9.609375 C-9.72804688 10.06828125 -10.35453125 10.5271875 -11 11 C-11.33 10.01 -11.66 9.02 -12 8 C-10.37982158 6.66081194 -8.75370657 5.3288031 -7.125 4 C-6.22007812 3.2575 -5.31515625 2.515 -4.3828125 1.75 C-2 0 -2 0 0 0 Z " fill="#0E133B" transform="translate(414,446)"/>
<path d="M0 0 C0.33 0.66 0.66 1.32 1 2 C2.32 1.67 3.64 1.34 5 1 C5.33 1.66 5.66 2.32 6 3 C5.0625 5.125 5.0625 5.125 4 7 C1.83125748 6.49396008 0.00032373 6.00016187 -2 5 C-1.125 1.125 -1.125 1.125 0 0 Z " fill="#7D7D98" transform="translate(281,270)"/>
<path d="M0 0 C1.32 0 2.64 0 4 0 C2.44298069 4.67105792 -0.08447373 8.08705685 -3 12 C-4.125 10.25 -4.125 10.25 -5 8 C-4.125 5.75 -4.125 5.75 -3 4 C-1.68 4 -0.36 4 1 4 C0.67 2.68 0.34 1.36 0 0 Z " fill="#424662" transform="translate(474,389)"/>
<path d="M0 0 C1.67542976 0.28604898 3.34385343 0.61781233 5 1 C4.2575 1.6496875 4.2575 1.6496875 3.5 2.3125 C1.66781808 3.99740483 1.66781808 3.99740483 2 7 C3.32 7.66 4.64 8.32 6 9 C6 9.33 6 9.66 6 10 C3.625 10.125 3.625 10.125 1 10 C-1 8 -1 8 -1.1875 4.4375 C-1 1 -1 1 0 0 Z " fill="#030339" transform="translate(199,283)"/>
<path d="M0 0 C0.66 0 1.32 0 2 0 C2.33 4.95 2.66 9.9 3 15 C2.01 15 1.02 15 0 15 C0 10.05 0 5.1 0 0 Z " fill="#040438" transform="translate(199,251)"/>
<path d="M0 0 C1.07765625 0.03609375 2.1553125 0.0721875 3.265625 0.109375 C4.49539063 0.17898438 4.49539063 0.17898438 5.75 0.25 C5.75 0.58 5.75 0.91 5.75 1.25 C0.305 1.745 0.305 1.745 -5.25 2.25 C-5.58 3.57 -5.91 4.89 -6.25 6.25 C-7.24 6.91 -8.23 7.57 -9.25 8.25 C-10 6.5 -10 6.5 -10.25 4.25 C-7.18694852 0.16593136 -4.97999733 -0.21652162 0 0 Z " fill="#202351" transform="translate(326.25,276.75)"/>
<path d="M0 0 C1.2375 0.1546875 1.2375 0.1546875 2.5 0.3125 C3.16 1.3025 3.82 2.2925 4.5 3.3125 C1.5 4.3125 1.5 4.3125 -1.5 4.3125 C-1.83 5.3025 -2.16 6.2925 -2.5 7.3125 C-3.16 7.3125 -3.82 7.3125 -4.5 7.3125 C-4.625 4.9375 -4.625 4.9375 -4.5 2.3125 C-2.5 0.3125 -2.5 0.3125 0 0 Z " fill="#1C1B4B" transform="translate(314.5,234.6875)"/>
<path d="M0 0 C0.99 0.33 1.98 0.66 3 1 C1.60667426 4.36720387 0.0210714 5.9859524 -3 8 C-3.99 7.34 -4.98 6.68 -6 6 C-4.02 4.02 -2.04 2.04 0 0 Z " fill="#242554" transform="translate(235,225)"/>
<path d="M0 0 C3.53600465 1.91135386 5.78972846 3.62642766 8 7 C6.3125 7.8125 6.3125 7.8125 4 8 C1.25 5.5625 1.25 5.5625 -1 3 C-0.67 2.01 -0.34 1.02 0 0 Z " fill="#1E2050" transform="translate(202,265)"/>
<path d="M0 0 C0.33 0 0.66 0 1 0 C1.0825 1.2375 1.165 2.475 1.25 3.75 C1.73335673 7.78745032 2.91533839 9.30092109 6 12 C6.75 14.25 6.75 14.25 7 16 C4.10671586 14.70301056 1.95063328 13.52695675 0 11 C-0.29296875 8.30078125 -0.29296875 8.30078125 -0.1875 5.3125 C-0.16042969 4.31863281 -0.13335937 3.32476562 -0.10546875 2.30078125 C-0.07066406 1.54152344 -0.03585938 0.78226563 0 0 Z " fill="#232352" transform="translate(223,236)"/>
<path d="M0 0 C0.99 0.33 1.98 0.66 3 1 C2.8125 3.375 2.8125 3.375 2 6 C-0.5625 7.3125 -0.5625 7.3125 -3 8 C-4 6 -4 6 -3.75 4 C-3 2 -3 2 0 0 Z " fill="#060837" transform="translate(132,179)"/>
<path d="M0 0 C1.32 0 2.64 0 4 0 C3.8125 1.8125 3.8125 1.8125 3 4 C0.625 5.625 0.625 5.625 -2 7 C-2.99 7.66 -3.98 8.32 -5 9 C-5 4.64014292 -2.97359577 3.04117749 0 0 Z " fill="#040438" transform="translate(402,176)"/>
<path d="M0 0 C0.66 0.99 1.32 1.98 2 3 C1.23832543 4.46313772 0.46529293 5.92036661 -0.3125 7.375 C-0.95638672 8.59316406 -0.95638672 8.59316406 -1.61328125 9.8359375 C-3 12 -3 12 -6 14 C-4.50829734 9.0276578 -2.39542583 4.58154261 0 0 Z " fill="#222549" transform="translate(480,359)"/>
<path d="M0 0 C0.66 0 1.32 0 2 0 C2.33 0.99 2.66 1.98 3 3 C4.32 3 5.64 3 7 3 C7.33 3.99 7.66 4.98 8 6 C4.37673261 7.2077558 3.35853631 6.54311128 0 5 C0 3.35 0 1.7 0 0 Z " fill="#100E42" transform="translate(294,227)"/>
<path d="M0 0 C0.33 0.66 0.66 1.32 1 2 C1.99 2.33 2.98 2.66 4 3 C4 3.99 4 4.98 4 6 C2.02 6 0.04 6 -2 6 C-2 3 -2 3 0 0 Z " fill="#01052A" transform="translate(471,387)"/>
<path d="M0 0 C2.475 0.495 2.475 0.495 5 1 C5.33 2.32 5.66 3.64 6 5 C4.35 5.33 2.7 5.66 1 6 C0.67 4.02 0.34 2.04 0 0 Z " fill="#131243" transform="translate(217,282)"/>
<path d="M0 0 C0.99 0.33 1.98 0.66 3 1 C3 6.61 3 12.22 3 18 C2.67 18 2.34 18 2 18 C1.67 13.05 1.34 8.1 1 3 C0.34 3 -0.32 3 -1 3 C-0.67 2.01 -0.34 1.02 0 0 Z " fill="#131644" transform="translate(223,343)"/>
<path d="M0 0 C2.31 0 4.62 0 7 0 C5.515 2.475 5.515 2.475 4 5 C1.525 4.01 1.525 4.01 -1 3 C-0.67 2.01 -0.34 1.02 0 0 Z " fill="#14154E" transform="translate(463,401)"/>
<path d="M0 0 C0.66 0 1.32 0 2 0 C2.33 1.65 2.66 3.3 3 5 C1.02 5.99 1.02 5.99 -1 7 C-1.625 4.625 -1.625 4.625 -2 2 C-1.34 1.34 -0.68 0.68 0 0 Z " fill="#20234E" transform="translate(449,196)"/>
<path d="M0 0 C0.66 0 1.32 0 2 0 C2.433125 0.9590625 2.433125 0.9590625 2.875 1.9375 C3.82823451 4.15206079 3.82823451 4.15206079 6 5 C6 5.66 6 6.32 6 7 C1.125 6.125 1.125 6.125 0 5 C-0.04063832 3.33382885 -0.042721 1.66611905 0 0 Z " fill="#0C0D3E" transform="translate(307,286)"/>
<path d="M0 0 C0.33 0 0.66 0 1 0 C1.16852247 1.60397277 1.33474886 3.2081869 1.5 4.8125 C1.5928125 5.70582031 1.685625 6.59914062 1.78125 7.51953125 C2 10 2 10 2 13 C1.01 13.495 1.01 13.495 0 14 C-0.99 13.34 -1.98 12.68 -3 12 C-2.34 11.67 -1.68 11.34 -1 11 C-0.5316735 8.41394668 -0.5316735 8.41394668 -0.375 5.4375 C-0.30023438 4.42558594 -0.22546875 3.41367188 -0.1484375 2.37109375 C-0.09945313 1.58863281 -0.05046875 0.80617187 0 0 Z " fill="#393A65" transform="translate(287,237)"/>
<path d="M0 0 C1.98 0.495 1.98 0.495 4 1 C3.67 2.32 3.34 3.64 3 5 C1.68 4.67 0.36 4.34 -1 4 C-0.67 2.68 -0.34 1.36 0 0 Z " fill="#D4D4DC" transform="translate(316,313)"/>
<path d="M0 0 C1.98 0.495 1.98 0.495 4 1 C3.67 2.32 3.34 3.64 3 5 C1.68 4.67 0.36 4.34 -1 4 C-0.67 2.68 -0.34 1.36 0 0 Z " fill="#CFCDD6" transform="translate(201,286)"/>
<path d="M0 0 C1.98 0.495 1.98 0.495 4 1 C3.67 2.32 3.34 3.64 3 5 C1.68 4.67 0.36 4.34 -1 4 C-0.67 2.68 -0.34 1.36 0 0 Z " fill="#CAC9D1" transform="translate(313,238)"/>
<path d="M0 0 C1.98 0 3.96 0 6 0 C5.34 1.65 4.68 3.3 4 5 C2.35 4.67 0.7 4.34 -1 4 C-0.67 2.68 -0.34 1.36 0 0 Z " fill="#08093F" transform="translate(41,129)"/>
<path d="M0 0 C0.99 0.33 1.98 0.66 3 1 C3 2.32 3 3.64 3 5 C1.35 4.67 -0.3 4.34 -2 4 C-1.34 2.68 -0.68 1.36 0 0 Z " fill="#DCDBE2" transform="translate(215,226)"/>
<path d="M0 0 C1.2065625 0.0309375 1.2065625 0.0309375 2.4375 0.0625 C0.7875 2.0425 -0.8625 4.0225 -2.5625 6.0625 C-3.2225 5.7325 -3.8825 5.4025 -4.5625 5.0625 C-3.43829114 0.08386076 -3.43829114 0.08386076 0 0 Z " fill="#0B093F" transform="translate(215.5625,223.9375)"/>
<path d="M0 0 C1.98 1.65 3.96 3.3 6 5 C4.1875 5.6875 4.1875 5.6875 2 6 C0.25 4.5625 0.25 4.5625 -1 3 C-0.67 2.01 -0.34 1.02 0 0 Z " fill="#03053B" transform="translate(409,216)"/>
<path d="M0 0 C1.65 0 3.3 0 5 0 C4.67 1.65 4.34 3.3 4 5 C3.67 4.34 3.34 3.68 3 3 C1.68 3.33 0.36 3.66 -1 4 C-0.67 2.68 -0.34 1.36 0 0 Z " fill="#08083D" transform="translate(29,153)"/>
<path d="M0 0 C1.65 0 3.3 0 5 0 C4.67 1.32 4.34 2.64 4 4 C2.35 4 0.7 4 -1 4 C-0.67 2.68 -0.34 1.36 0 0 Z " fill="#06053D" transform="translate(37,137)"/>
<path d="M0 0 C0.33 0.66 0.66 1.32 1 2 C0.01 2.99 -0.98 3.98 -2 5 C-2.33 4.34 -2.66 3.68 -3 3 C-4.32 3.33 -5.64 3.66 -7 4 C-6.67 3.01 -6.34 2.02 -6 1 C-4.02 0.67 -2.04 0.34 0 0 Z " fill="#494A79" transform="translate(480,384)"/>
<path d="M0 0 C0.99 0 1.98 0 3 0 C3 1.65 3 3.3 3 5 C1.68 5 0.36 5 -1 5 C-0.67 3.35 -0.34 1.7 0 0 Z " fill="#E4E3E8" transform="translate(292,287)"/>
<path d="M0 0 C1.98 0.495 1.98 0.495 4 1 C3.67 2.32 3.34 3.64 3 5 C1.68 4.34 0.36 3.68 -1 3 C-0.67 2.01 -0.34 1.02 0 0 Z " fill="#DDDCE0" transform="translate(310,286)"/>
<path d="M0 0 C0.66 0.99 1.32 1.98 2 3 C1.690625 3.598125 1.38125 4.19625 1.0625 4.8125 C-0.10209704 7.08956772 -0.10209704 7.08956772 -1 10 C-1.66 9.67 -2.32 9.34 -3 9 C-2.01 6.03 -1.02 3.06 0 0 Z " fill="#191D3D" transform="translate(484,350)"/>
<path d="M0 0 C1.32 0 2.64 0 4 0 C4 0.66 4 1.32 4 2 C3.34 2 2.68 2 2 2 C2 4.31 2 6.62 2 9 C1.67 9 1.34 9 1 9 C0.63877119 7.68942607 0.28619689 6.37646376 -0.0625 5.0625 C-0.35833984 3.96615234 -0.35833984 3.96615234 -0.66015625 2.84765625 C-0.77230469 2.23792969 -0.88445312 1.62820313 -1 1 C-0.67 0.67 -0.34 0.34 0 0 Z " fill="#020436" transform="translate(316,318)"/>
<path d="M0 0 C1.32 0 2.64 0 4 0 C3.67 1.65 3.34 3.3 3 5 C2.01 4.67 1.02 4.34 0 4 C0 2.68 0 1.36 0 0 Z " fill="#E6E5EB" transform="translate(195,313)"/>
<path d="M0 0 C2.475 0.495 2.475 0.495 5 1 C4.67 1.99 4.34 2.98 4 4 C2.68 4 1.36 4 0 4 C0 2.68 0 1.36 0 0 Z " fill="#E7E6EA" transform="translate(301,310)"/>
<path d="M0 0 C0.99 0.66 1.98 1.32 3 2 C1 4 1 4 -1.625 4.125 C-2.40875 4.08375 -3.1925 4.0425 -4 4 C-3.67 3.01 -3.34 2.02 -3 1 C-2.01 0.67 -1.02 0.34 0 0 Z " fill="#181749" transform="translate(223,291)"/>
<path d="M0 0 C1.65 0 3.3 0 5 0 C4.67 1.32 4.34 2.64 4 4 C2.68 3.67 1.36 3.34 0 3 C0 2.01 0 1.02 0 0 Z " fill="#DEDDE3" transform="translate(219,288)"/>
<path d="M0 0 C2 1 2 1 3 3 C2.01 3.495 2.01 3.495 1 4 C0.01 5.485 0.01 5.485 -1 7 C-1 6.01 -1 5.02 -1 4 C-1.66 4 -2.32 4 -3 4 C-2.67 3.01 -2.34 2.02 -2 1 C-1.34 0.67 -0.68 0.34 0 0 Z " fill="#2E2D53" transform="translate(291,284)"/>
<path d="M0 0 C1.98 0 3.96 0 6 0 C5.01 1.485 5.01 1.485 4 3 C1.375 3.1875 1.375 3.1875 -1 3 C-0.67 2.01 -0.34 1.02 0 0 Z " fill="#01003F" transform="translate(444,425)"/>
<path d="M0 0 C1.98 0 3.96 0 6 0 C4.515 1.98 4.515 1.98 3 4 C1.68 3.34 0.36 2.68 -1 2 C-0.67 1.34 -0.34 0.68 0 0 Z " fill="#010041" transform="translate(451,417)"/>
<path d="M0 0 C0.99 0.33 1.98 0.66 3 1 C2.01 2.32 1.02 3.64 0 5 C-1.32 4.34 -2.64 3.68 -4 3 C-2.1875 1.4375 -2.1875 1.4375 0 0 Z " fill="#0E0F47" transform="translate(486,368)"/>
<path d="M0 0 C1.65 0 3.3 0 5 0 C4.67 0.99 4.34 1.98 4 3 C2.35 3.33 0.7 3.66 -1 4 C-0.67 2.68 -0.34 1.36 0 0 Z " fill="#02023D" transform="translate(490,353)"/>
<path d="M0 0 C1.32 0 2.64 0 4 0 C3.34 1.32 2.68 2.64 2 4 C1.01 4 0.02 4 -1 4 C-0.67 2.68 -0.34 1.36 0 0 Z " fill="#202250" transform="translate(309,343)"/>
<path d="M0 0 C0.99 1.32 1.98 2.64 3 4 C2.01 5.485 2.01 5.485 1 7 C0.34 7 -0.32 7 -1 7 C-0.67 4.69 -0.34 2.38 0 0 Z " fill="#1E2045" transform="translate(497,309)"/>
<path d="M0 0 C1.32 0 2.64 0 4 0 C3.67 1.32 3.34 2.64 3 4 C1.68 3.67 0.36 3.34 -1 3 C-0.67 2.01 -0.34 1.02 0 0 Z " fill="#ECEBEE" transform="translate(229,273)"/>
<path d="M0 0 C0.99 0.33 1.98 0.66 3 1 C3 2.32 3 3.64 3 5 C1.68 4.67 0.36 4.34 -1 4 C-0.67 2.68 -0.34 1.36 0 0 Z " fill="#E4E3E9" transform="translate(199,238)"/>
<path d="M0 0 C0.33 0 0.66 0 1 0 C1.1875 2.875 1.1875 2.875 1 6 C0.01 6.66 -0.98 7.32 -2 8 C-1.125 1.125 -1.125 1.125 0 0 Z " fill="#010229" transform="translate(7,208)"/>
<path d="M0 0 C1.65 1.65 3.3 3.3 5 5 C4.01 5.66 3.02 6.32 2 7 C0 4 0 4 0 0 Z " fill="#06073D" transform="translate(427,205)"/>
<path d="M0 0 C0.33 1.32 0.66 2.64 1 4 C-0.9375 6.25 -0.9375 6.25 -3 8 C-3.66 7.67 -4.32 7.34 -5 7 C-3.35 4.69 -1.7 2.38 0 0 Z " fill="#191B46" transform="translate(94,187)"/>
<path d="M0 0 C0 2.83967231 -0.40267181 5.23735711 -1 8 C-1.103125 7.360625 -1.20625 6.72125 -1.3125 6.0625 C-1.539375 5.381875 -1.76625 4.70125 -2 4 C-2.99 3.67 -3.98 3.34 -5 3 C-3.35 2.01 -1.7 1.02 0 0 Z " fill="#181846" transform="translate(124,158)"/>
</svg>
